G04 #@! TF.GenerationSoftware,KiCad,Pcbnew,9.0.3*
G04 #@! TF.CreationDate,2025-07-16T17:21:36+12:00*
G04 #@! TF.ProjectId,TempSense,54656d70-5365-46e7-9365-2e6b69636164,rev?*
G04 #@! TF.SameCoordinates,Original*
G04 #@! TF.FileFunction,Legend,Bot*
G04 #@! TF.FilePolarity,Positive*
%FSLAX46Y46*%
G04 Gerber Fmt 4.6, Leading zero omitted, Abs format (unit mm)*
G04 Created by KiCad (PCBNEW 9.0.3) date 2025-07-16 17:21:36*
%MOMM*%
%LPD*%
G01*
G04 APERTURE LIST*
G04 Aperture macros list*
%AMRoundRect*
0 Rectangle with rounded corners*
0 $1 Rounding radius*
0 $2 $3 $4 $5 $6 $7 $8 $9 X,Y pos of 4 corners*
0 Add a 4 corners polygon primitive as box body*
4,1,4,$2,$3,$4,$5,$6,$7,$8,$9,$2,$3,0*
0 Add four circle primitives for the rounded corners*
1,1,$1+$1,$2,$3*
1,1,$1+$1,$4,$5*
1,1,$1+$1,$6,$7*
1,1,$1+$1,$8,$9*
0 Add four rect primitives between the rounded corners*
20,1,$1+$1,$2,$3,$4,$5,0*
20,1,$1+$1,$4,$5,$6,$7,0*
20,1,$1+$1,$6,$7,$8,$9,0*
20,1,$1+$1,$8,$9,$2,$3,0*%
G04 Aperture macros list end*
%ADD10C,0.150000*%
%ADD11C,0.120000*%
%ADD12C,3.800000*%
%ADD13C,0.850000*%
%ADD14C,0.600000*%
%ADD15O,2.204000X1.104000*%
%ADD16O,1.904000X1.104000*%
%ADD17RoundRect,0.250000X0.600000X0.750000X-0.600000X0.750000X-0.600000X-0.750000X0.600000X-0.750000X0*%
%ADD18O,1.700000X2.000000*%
G04 APERTURE END LIST*
D10*
X78478697Y-82509875D02*
X78383459Y-82509875D01*
X78383459Y-82509875D02*
X78288221Y-82557494D01*
X78288221Y-82557494D02*
X78240602Y-82605113D01*
X78240602Y-82605113D02*
X78192983Y-82700351D01*
X78192983Y-82700351D02*
X78145364Y-82890827D01*
X78145364Y-82890827D02*
X78145364Y-83128922D01*
X78145364Y-83128922D02*
X78192983Y-83319398D01*
X78192983Y-83319398D02*
X78240602Y-83414636D01*
X78240602Y-83414636D02*
X78288221Y-83462256D01*
X78288221Y-83462256D02*
X78383459Y-83509875D01*
X78383459Y-83509875D02*
X78478697Y-83509875D01*
X78478697Y-83509875D02*
X78573935Y-83462256D01*
X78573935Y-83462256D02*
X78621554Y-83414636D01*
X78621554Y-83414636D02*
X78669173Y-83319398D01*
X78669173Y-83319398D02*
X78716792Y-83128922D01*
X78716792Y-83128922D02*
X78716792Y-82890827D01*
X78716792Y-82890827D02*
X78669173Y-82700351D01*
X78669173Y-82700351D02*
X78621554Y-82605113D01*
X78621554Y-82605113D02*
X78573935Y-82557494D01*
X78573935Y-82557494D02*
X78478697Y-82509875D01*
X77812030Y-82509875D02*
X77145364Y-82509875D01*
X77145364Y-82509875D02*
X77573935Y-83509875D01*
X76050126Y-82462256D02*
X76907268Y-83747970D01*
X75764411Y-82605113D02*
X75716792Y-82557494D01*
X75716792Y-82557494D02*
X75621554Y-82509875D01*
X75621554Y-82509875D02*
X75383459Y-82509875D01*
X75383459Y-82509875D02*
X75288221Y-82557494D01*
X75288221Y-82557494D02*
X75240602Y-82605113D01*
X75240602Y-82605113D02*
X75192983Y-82700351D01*
X75192983Y-82700351D02*
X75192983Y-82795589D01*
X75192983Y-82795589D02*
X75240602Y-82938446D01*
X75240602Y-82938446D02*
X75812030Y-83509875D01*
X75812030Y-83509875D02*
X75192983Y-83509875D01*
X74288221Y-82509875D02*
X74764411Y-82509875D01*
X74764411Y-82509875D02*
X74812030Y-82986065D01*
X74812030Y-82986065D02*
X74764411Y-82938446D01*
X74764411Y-82938446D02*
X74669173Y-82890827D01*
X74669173Y-82890827D02*
X74431078Y-82890827D01*
X74431078Y-82890827D02*
X74335840Y-82938446D01*
X74335840Y-82938446D02*
X74288221Y-82986065D01*
X74288221Y-82986065D02*
X74240602Y-83081303D01*
X74240602Y-83081303D02*
X74240602Y-83319398D01*
X74240602Y-83319398D02*
X74288221Y-83414636D01*
X74288221Y-83414636D02*
X74335840Y-83462256D01*
X74335840Y-83462256D02*
X74431078Y-83509875D01*
X74431078Y-83509875D02*
X74669173Y-83509875D01*
X74669173Y-83509875D02*
X74764411Y-83462256D01*
X74764411Y-83462256D02*
X74812030Y-83414636D01*
X78097745Y-85119819D02*
X78431078Y-84643628D01*
X78669173Y-85119819D02*
X78669173Y-84119819D01*
X78669173Y-84119819D02*
X78288221Y-84119819D01*
X78288221Y-84119819D02*
X78192983Y-84167438D01*
X78192983Y-84167438D02*
X78145364Y-84215057D01*
X78145364Y-84215057D02*
X78097745Y-84310295D01*
X78097745Y-84310295D02*
X78097745Y-84453152D01*
X78097745Y-84453152D02*
X78145364Y-84548390D01*
X78145364Y-84548390D02*
X78192983Y-84596009D01*
X78192983Y-84596009D02*
X78288221Y-84643628D01*
X78288221Y-84643628D02*
X78669173Y-84643628D01*
X77288221Y-85072200D02*
X77383459Y-85119819D01*
X77383459Y-85119819D02*
X77573935Y-85119819D01*
X77573935Y-85119819D02*
X77669173Y-85072200D01*
X77669173Y-85072200D02*
X77716792Y-84976961D01*
X77716792Y-84976961D02*
X77716792Y-84596009D01*
X77716792Y-84596009D02*
X77669173Y-84500771D01*
X77669173Y-84500771D02*
X77573935Y-84453152D01*
X77573935Y-84453152D02*
X77383459Y-84453152D01*
X77383459Y-84453152D02*
X77288221Y-84500771D01*
X77288221Y-84500771D02*
X77240602Y-84596009D01*
X77240602Y-84596009D02*
X77240602Y-84691247D01*
X77240602Y-84691247D02*
X77716792Y-84786485D01*
X76907268Y-84453152D02*
X76669173Y-85119819D01*
X76669173Y-85119819D02*
X76431078Y-84453152D01*
X75097744Y-84119819D02*
X75002506Y-84119819D01*
X75002506Y-84119819D02*
X74907268Y-84167438D01*
X74907268Y-84167438D02*
X74859649Y-84215057D01*
X74859649Y-84215057D02*
X74812030Y-84310295D01*
X74812030Y-84310295D02*
X74764411Y-84500771D01*
X74764411Y-84500771D02*
X74764411Y-84738866D01*
X74764411Y-84738866D02*
X74812030Y-84929342D01*
X74812030Y-84929342D02*
X74859649Y-85024580D01*
X74859649Y-85024580D02*
X74907268Y-85072200D01*
X74907268Y-85072200D02*
X75002506Y-85119819D01*
X75002506Y-85119819D02*
X75097744Y-85119819D01*
X75097744Y-85119819D02*
X75192982Y-85072200D01*
X75192982Y-85072200D02*
X75240601Y-85024580D01*
X75240601Y-85024580D02*
X75288220Y-84929342D01*
X75288220Y-84929342D02*
X75335839Y-84738866D01*
X75335839Y-84738866D02*
X75335839Y-84500771D01*
X75335839Y-84500771D02*
X75288220Y-84310295D01*
X75288220Y-84310295D02*
X75240601Y-84215057D01*
X75240601Y-84215057D02*
X75192982Y-84167438D01*
X75192982Y-84167438D02*
X75097744Y-84119819D01*
X74335839Y-85024580D02*
X74288220Y-85072200D01*
X74288220Y-85072200D02*
X74335839Y-85119819D01*
X74335839Y-85119819D02*
X74383458Y-85072200D01*
X74383458Y-85072200D02*
X74335839Y-85024580D01*
X74335839Y-85024580D02*
X74335839Y-85119819D01*
X73335840Y-85119819D02*
X73907268Y-85119819D01*
X73621554Y-85119819D02*
X73621554Y-84119819D01*
X73621554Y-84119819D02*
X73716792Y-84262676D01*
X73716792Y-84262676D02*
X73812030Y-84357914D01*
X73812030Y-84357914D02*
X73907268Y-84405533D01*
X81738095Y-68681009D02*
X81595238Y-68728628D01*
X81595238Y-68728628D02*
X81547619Y-68776247D01*
X81547619Y-68776247D02*
X81500000Y-68871485D01*
X81500000Y-68871485D02*
X81500000Y-69014342D01*
X81500000Y-69014342D02*
X81547619Y-69109580D01*
X81547619Y-69109580D02*
X81595238Y-69157200D01*
X81595238Y-69157200D02*
X81690476Y-69204819D01*
X81690476Y-69204819D02*
X82071428Y-69204819D01*
X82071428Y-69204819D02*
X82071428Y-68204819D01*
X82071428Y-68204819D02*
X81738095Y-68204819D01*
X81738095Y-68204819D02*
X81642857Y-68252438D01*
X81642857Y-68252438D02*
X81595238Y-68300057D01*
X81595238Y-68300057D02*
X81547619Y-68395295D01*
X81547619Y-68395295D02*
X81547619Y-68490533D01*
X81547619Y-68490533D02*
X81595238Y-68585771D01*
X81595238Y-68585771D02*
X81642857Y-68633390D01*
X81642857Y-68633390D02*
X81738095Y-68681009D01*
X81738095Y-68681009D02*
X82071428Y-68681009D01*
X81119047Y-68919104D02*
X80642857Y-68919104D01*
X81214285Y-69204819D02*
X80880952Y-68204819D01*
X80880952Y-68204819D02*
X80547619Y-69204819D01*
X80357142Y-68204819D02*
X79785714Y-68204819D01*
X80071428Y-69204819D02*
X80071428Y-68204819D01*
D11*
X79750000Y-69970000D02*
X79750000Y-69370000D01*
X80050000Y-69670000D02*
X79450000Y-69670000D01*
X82550000Y-69670000D02*
X81950000Y-69670000D01*
%LPC*%
D12*
X85500000Y-55000000D03*
D13*
X65400000Y-82000000D03*
X65400500Y-85000000D03*
D12*
X66500000Y-55000000D03*
D14*
X69180000Y-68435000D03*
X69180000Y-74215000D03*
D15*
X69670000Y-67000000D03*
X69670000Y-75650000D03*
D16*
X65500000Y-67000000D03*
X65500000Y-75650000D03*
D17*
X82250000Y-71170000D03*
D18*
X79750000Y-71170000D03*
%LPD*%
M02*
