M48
; DRILL file {KiCad 9.0.3} date 2025-07-16T17:22:25+1200
; FORMAT={-:-/ absolute / metric / decimal}
; #@! TF.CreationDate,2025-07-16T17:22:25+12:00
; #@! TF.GenerationSoftware,Kicad,Pcbnew,9.0.3
; #@! TF.FileFunction,Plated,1,4,PTH
FMAT,2
METRIC
; #@! TA.AperFunction,Plated,PTH,ComponentDrill
T1C0.250
; #@! TA.AperFunction,Plated,PTH,ViaDrill
T2C0.300
; #@! TA.AperFunction,Plated,PTH,ComponentDrill
T3C0.600
; #@! TA.AperFunction,Plated,PTH,ComponentDrill
T4C1.000
; #@! TA.AperFunction,Plated,PTH,ComponentDrill
T5C2.200
%
G90
G05
T1
X75.42Y-76.605
X75.42Y-77.605
X75.92Y-77.105
X76.42Y-76.605
X76.42Y-77.605
T2
X64.75Y-57.75
X65.5Y-61.2
X65.5Y-63.375
X65.75Y-70.0
X65.75Y-73.0
X67.0Y-82.9
X67.9Y-80.2
X68.09Y-58.25
X68.2Y-87.2
X68.8Y-80.2
X68.8Y-81.0
X68.8Y-81.8
X69.2Y-52.212
X69.5Y-53.75
X69.5Y-55.75
X69.7Y-63.62
X69.775Y-61.8
X70.0Y-57.0
X70.0Y-58.0
X70.05Y-85.98
X70.75Y-65.1
X70.8Y-78.6
X71.0Y-80.5
X71.0Y-82.5
X71.3Y-60.974
X71.4Y-68.1
X71.4Y-69.0
X71.4Y-74.6
X71.5Y-73.5
X71.5Y-87.25
X71.75Y-76.75
X71.75Y-77.5
X72.0Y-85.98
X72.05Y-64.05
X72.2Y-57.0
X72.2Y-71.325
X72.6Y-55.2
X72.6Y-56.0
X72.7Y-74.5
X72.8Y-58.0
X73.0Y-80.35
X73.0Y-82.5
X73.0Y-85.72
X73.185Y-67.15
X73.45Y-74.5
X73.5Y-52.5
X74.2Y-59.0
X74.5Y-87.25
X74.55Y-61.3
X74.55Y-62.55
X74.55Y-63.75
X74.55Y-81.565
X74.9Y-66.375
X75.0Y-89.3
X75.27Y-56.705
X75.27Y-57.675
X75.3Y-81.565
X75.75Y-61.85
X75.75Y-63.2
X76.475Y-81.465
X76.5Y-66.3
X76.675Y-74.55
X76.83Y-87.6
X77.0Y-61.3
X77.0Y-62.575
X77.0Y-63.75
X77.5Y-52.5
X77.65Y-66.3
X78.0Y-73.4
X78.1Y-81.85
X78.46Y-56.715
X78.46Y-57.685
X78.65Y-75.9
X79.0Y-85.72
X79.0Y-88.75
X79.425Y-75.9
X79.6Y-55.8
X79.8Y-83.62
X79.8Y-84.42
X80.1Y-80.995
X80.35Y-67.7
X80.4Y-55.8
X81.1Y-78.5
X81.15Y-58.025
X81.15Y-58.825
X81.15Y-63.02
X81.4Y-59.875
X81.5Y-52.5
X81.6Y-73.4
X81.6Y-75.0
X81.65Y-76.61
X81.65Y-77.41
X81.8Y-80.8
X81.8Y-83.0
X81.8Y-85.2
X81.8Y-88.75
X82.5Y-59.8
X82.8Y-79.0
X83.25Y-62.6
X83.7Y-75.395
X83.7Y-81.885
X83.7Y-84.25
X83.75Y-67.5
X84.0Y-59.8
X84.05Y-63.7
X84.55Y-70.715
X84.55Y-73.6
X84.55Y-78.6
X84.55Y-80.1
X85.0Y-88.75
X86.25Y-67.75
X86.35Y-70.915
X86.35Y-78.79
X86.35Y-85.29
X86.9Y-60.25
X87.15Y-70.915
X87.15Y-78.79
X87.15Y-85.29
X87.25Y-65.25
X87.25Y-68.5
T4
X79.75Y-71.17
X82.25Y-71.17
T5
X66.5Y-55.0
X85.5Y-55.0
T3
X65.9Y-67.0G85X65.1Y-67.0
G05
X65.9Y-75.65G85X65.1Y-75.65
G05
X70.22Y-67.0G85X69.12Y-67.0
G05
X70.22Y-75.65G85X69.12Y-75.65
G05
M30
