G04 #@! TF.GenerationSoftware,KiCad,Pcbnew,9.0.3*
G04 #@! TF.CreationDate,2025-07-16T17:21:36+12:00*
G04 #@! TF.ProjectId,TempSense,54656d70-5365-46e7-9365-2e6b69636164,rev?*
G04 #@! TF.SameCoordinates,Original*
G04 #@! TF.FileFunction,Profile,NP*
%FSLAX46Y46*%
G04 Gerber Fmt 4.6, Leading zero omitted, Abs format (unit mm)*
G04 Created by KiCad (PCBNEW 9.0.3) date 2025-07-16 17:21:36*
%MOMM*%
%LPD*%
G01*
G04 APERTURE LIST*
G04 #@! TA.AperFunction,Profile*
%ADD10C,0.050000*%
G04 #@! TD*
G04 APERTURE END LIST*
D10*
X72550000Y-91400000D02*
X72550000Y-95000000D01*
X72550000Y-91400000D02*
G75*
G02*
X72950000Y-91000000I400000J0D01*
G01*
X72550000Y-95000000D02*
G75*
G02*
X71750000Y-95000000I-400000J0D01*
G01*
X72950000Y-90200000D02*
X74450000Y-90200000D01*
X71750000Y-91400000D02*
G75*
G02*
X72950000Y-90200000I1200000J0D01*
G01*
X71750000Y-95000000D02*
X71750000Y-91400000D01*
X74450000Y-91000000D02*
X72950000Y-91000000D01*
X74450000Y-90200000D02*
G75*
G02*
X74450000Y-91000000I0J-400000D01*
G01*
X79450000Y-91400000D02*
X79450000Y-95000000D01*
X79050000Y-91000000D02*
G75*
G02*
X79450000Y-91400000I0J-400000D01*
G01*
X80250000Y-95000000D02*
G75*
G02*
X79450000Y-95000000I-400000J0D01*
G01*
X80250000Y-95000000D02*
X80250000Y-91400000D01*
X79050000Y-90200000D02*
X77550000Y-90200000D01*
X77550000Y-91000000D02*
X79050000Y-91000000D01*
X77550000Y-91000000D02*
G75*
G02*
X77550000Y-90200000I0J400000D01*
G01*
X79050000Y-90200000D02*
G75*
G02*
X80250000Y-91400000I0J-1200000D01*
G01*
X72000000Y-96500000D02*
G75*
G02*
X71000000Y-95500000I0J1000000D01*
G01*
X88500000Y-55000000D02*
X88500000Y-87500000D01*
X81000000Y-95500000D02*
X81000000Y-91000000D01*
X81000000Y-95500000D02*
G75*
G02*
X80000000Y-96500000I-1000000J0D01*
G01*
X85500000Y-52000000D02*
G75*
G02*
X88500000Y-55000000I0J-3000000D01*
G01*
X84500000Y-47300000D02*
X84500000Y-51000000D01*
X67500000Y-47300000D02*
G75*
G02*
X68300000Y-46500000I800000J0D01*
G01*
X85500000Y-52000000D02*
G75*
G02*
X84500000Y-51000000I0J1000000D01*
G01*
X63500000Y-87500000D02*
X63500000Y-55000000D01*
X67500000Y-47300000D02*
X67500000Y-51000000D01*
X88500000Y-87500000D02*
G75*
G02*
X86000000Y-90000000I-2500000J0D01*
G01*
X66000000Y-90000000D02*
G75*
G02*
X63500000Y-87500000I0J2500000D01*
G01*
X83700000Y-46500000D02*
X68300000Y-46500000D01*
X86000000Y-90000000D02*
X82000000Y-90000000D01*
X70000000Y-90000000D02*
G75*
G02*
X71000000Y-91000000I0J-1000000D01*
G01*
X70000000Y-90000000D02*
X66000000Y-90000000D01*
X63500000Y-55000000D02*
G75*
G02*
X66500000Y-52000000I3000000J0D01*
G01*
X80000000Y-96500000D02*
X72000000Y-96500000D01*
X67500000Y-51000000D02*
G75*
G02*
X66500000Y-52000000I-1000000J0D01*
G01*
X81000000Y-91000000D02*
G75*
G02*
X82000000Y-90000000I1000000J0D01*
G01*
X83700000Y-46500000D02*
G75*
G02*
X84500000Y-47300000I0J-800000D01*
G01*
X71000000Y-95500000D02*
X71000000Y-91000000D01*
M02*
