G04 #@! TF.GenerationSoftware,KiCad,Pcbnew,9.0.3*
G04 #@! TF.CreationDate,2025-07-16T17:21:36+12:00*
G04 #@! TF.ProjectId,TempSense,54656d70-5365-46e7-9365-2e6b69636164,rev?*
G04 #@! TF.SameCoordinates,Original*
G04 #@! TF.FileFunction,Copper,L2,Inr*
G04 #@! TF.FilePolarity,Positive*
%FSLAX46Y46*%
G04 Gerber Fmt 4.6, Leading zero omitted, Abs format (unit mm)*
G04 Created by KiCad (PCBNEW 9.0.3) date 2025-07-16 17:21:36*
%MOMM*%
%LPD*%
G01*
G04 APERTURE LIST*
G04 Aperture macros list*
%AMRoundRect*
0 Rectangle with rounded corners*
0 $1 Rounding radius*
0 $2 $3 $4 $5 $6 $7 $8 $9 X,Y pos of 4 corners*
0 Add a 4 corners polygon primitive as box body*
4,1,4,$2,$3,$4,$5,$6,$7,$8,$9,$2,$3,0*
0 Add four circle primitives for the rounded corners*
1,1,$1+$1,$2,$3*
1,1,$1+$1,$4,$5*
1,1,$1+$1,$6,$7*
1,1,$1+$1,$8,$9*
0 Add four rect primitives between the rounded corners*
20,1,$1+$1,$2,$3,$4,$5,0*
20,1,$1+$1,$4,$5,$6,$7,0*
20,1,$1+$1,$6,$7,$8,$9,0*
20,1,$1+$1,$8,$9,$2,$3,0*%
G04 Aperture macros list end*
G04 #@! TA.AperFunction,ComponentPad*
%ADD10C,3.800000*%
G04 #@! TD*
G04 #@! TA.AperFunction,ComponentPad*
%ADD11C,0.650000*%
G04 #@! TD*
G04 #@! TA.AperFunction,ComponentPad*
%ADD12O,2.000000X0.900000*%
G04 #@! TD*
G04 #@! TA.AperFunction,ComponentPad*
%ADD13O,1.700000X0.900000*%
G04 #@! TD*
G04 #@! TA.AperFunction,ComponentPad*
%ADD14RoundRect,0.250000X0.600000X0.750000X-0.600000X0.750000X-0.600000X-0.750000X0.600000X-0.750000X0*%
G04 #@! TD*
G04 #@! TA.AperFunction,ComponentPad*
%ADD15O,1.700000X2.000000*%
G04 #@! TD*
G04 #@! TA.AperFunction,ViaPad*
%ADD16C,0.700000*%
G04 #@! TD*
G04 APERTURE END LIST*
D10*
X85500000Y-55000000D03*
X66500000Y-55000000D03*
D11*
X76420000Y-77605000D03*
X76420000Y-76605000D03*
X75920000Y-77105000D03*
X75420000Y-77605000D03*
X75420000Y-76605000D03*
D12*
X69670000Y-67000000D03*
X69670000Y-75650000D03*
D13*
X65500000Y-67000000D03*
X65500000Y-75650000D03*
D14*
X82250000Y-71170000D03*
D15*
X79750000Y-71170000D03*
D16*
X81100000Y-78500000D03*
X83700000Y-84250000D03*
X81650000Y-77410000D03*
X85000000Y-88750000D03*
X81800000Y-88750000D03*
X65750000Y-73000000D03*
X73000000Y-82500000D03*
X71500000Y-87250000D03*
X79600000Y-55800000D03*
X74550000Y-63750000D03*
X81650000Y-76610000D03*
X78000000Y-73400000D03*
X64750000Y-57750000D03*
X75270000Y-56705000D03*
X70050000Y-85980000D03*
X70750000Y-65100000D03*
X77000000Y-62575000D03*
X73500000Y-52500000D03*
X84550000Y-70715000D03*
X78460000Y-56715000D03*
X69500000Y-53750000D03*
X76475000Y-81465000D03*
X76500000Y-66300000D03*
X82500000Y-59800000D03*
X69500000Y-55750000D03*
X81800000Y-80800000D03*
X73000000Y-85720000D03*
X69200000Y-52212500D03*
X75750000Y-63200000D03*
X81400000Y-59875000D03*
X77000000Y-61300000D03*
X78100000Y-81850000D03*
X71000000Y-82500000D03*
X81150000Y-63020000D03*
X77500000Y-52500000D03*
X86350000Y-78790000D03*
X87150000Y-85290000D03*
X73000000Y-80350000D03*
X86900000Y-60250000D03*
X71400000Y-74600000D03*
X86250000Y-67750000D03*
X72700000Y-74500000D03*
X73450000Y-74500000D03*
X80100000Y-80995000D03*
X72200000Y-71325000D03*
X79000000Y-88750000D03*
X67000000Y-82900000D03*
X78460000Y-57685000D03*
X87250000Y-65250000D03*
X65750000Y-70000000D03*
X72000000Y-85980000D03*
X74550000Y-62550000D03*
X86350000Y-85290000D03*
X81500000Y-52500000D03*
X74500000Y-87250000D03*
X87250000Y-68500000D03*
X71000000Y-80500000D03*
X80400000Y-55800000D03*
X79000000Y-85720000D03*
X74550000Y-61300000D03*
X86350000Y-70915000D03*
X82800000Y-79000000D03*
X71400000Y-68100000D03*
X84550000Y-78600000D03*
X87150000Y-70915000D03*
X75270000Y-57675000D03*
X83250000Y-62600000D03*
X77000000Y-63750000D03*
X69775000Y-61800000D03*
X84050000Y-63700000D03*
X75000000Y-89300000D03*
X75750000Y-61850000D03*
X81600000Y-73400000D03*
X81800000Y-83000000D03*
X73185000Y-67150000D03*
X81800000Y-85200000D03*
X87150000Y-78790000D03*
X68200000Y-87200000D03*
X81600000Y-75000000D03*
X78650000Y-75900000D03*
X77650000Y-66300000D03*
X79425000Y-75900000D03*
X83700000Y-81885000D03*
X71300000Y-60974000D03*
X80350000Y-67700000D03*
X83750000Y-67500000D03*
X72800000Y-58000000D03*
X83700000Y-75395000D03*
X72600000Y-56000000D03*
X74900000Y-66375000D03*
X70000000Y-57000000D03*
X72200000Y-57000000D03*
X84000000Y-59800000D03*
X69700000Y-63620000D03*
X70000000Y-58000000D03*
X81150000Y-58025000D03*
X68090000Y-58250000D03*
X81150000Y-58825000D03*
X76830000Y-87600000D03*
X65500000Y-61200000D03*
X79800000Y-83620000D03*
X79800000Y-84420000D03*
X72600000Y-55200000D03*
X72050000Y-64050000D03*
X84550000Y-80100000D03*
X84550000Y-73600000D03*
X74200000Y-59000000D03*
X71500000Y-73500000D03*
X74550000Y-81565000D03*
X71400000Y-69000000D03*
X75300000Y-81565000D03*
X76675000Y-74550000D03*
X71750000Y-77500000D03*
X67900000Y-80200000D03*
X68800000Y-81800000D03*
X68800000Y-81000000D03*
X70800000Y-78600000D03*
X71750000Y-76750000D03*
X65500000Y-63375000D03*
X68800000Y-80200000D03*
G04 #@! TA.AperFunction,Conductor*
G36*
X84683292Y-52014133D02*
G01*
X84818389Y-52112287D01*
X84906300Y-52157079D01*
X85000781Y-52205220D01*
X85000783Y-52205220D01*
X85000786Y-52205222D01*
X85195455Y-52268474D01*
X85195461Y-52268475D01*
X85195466Y-52268477D01*
X85296557Y-52284488D01*
X85397646Y-52300500D01*
X85397648Y-52300500D01*
X85452405Y-52300500D01*
X85497917Y-52300500D01*
X85502065Y-52300615D01*
X85798112Y-52317241D01*
X85806346Y-52318170D01*
X86096603Y-52367486D01*
X86104671Y-52369327D01*
X86387605Y-52450839D01*
X86395418Y-52453573D01*
X86667428Y-52566244D01*
X86674904Y-52569844D01*
X86932594Y-52712263D01*
X86939608Y-52716671D01*
X87179716Y-52887037D01*
X87186203Y-52892209D01*
X87405741Y-53088400D01*
X87411604Y-53094263D01*
X87607789Y-53313795D01*
X87612962Y-53320283D01*
X87783324Y-53560385D01*
X87787740Y-53567412D01*
X87930155Y-53825095D01*
X87933755Y-53832571D01*
X88046422Y-54104571D01*
X88049163Y-54112404D01*
X88130669Y-54395317D01*
X88132515Y-54403408D01*
X88181828Y-54693647D01*
X88182758Y-54701893D01*
X88199384Y-54997934D01*
X88199500Y-55002083D01*
X88199500Y-87497763D01*
X88199365Y-87502231D01*
X88183733Y-87760650D01*
X88182656Y-87769521D01*
X88136393Y-88021976D01*
X88134254Y-88030652D01*
X88057901Y-88275675D01*
X88054733Y-88284030D01*
X87949398Y-88518076D01*
X87945245Y-88525989D01*
X87812469Y-88745626D01*
X87807393Y-88752980D01*
X87649109Y-88955014D01*
X87643183Y-88961703D01*
X87461703Y-89143183D01*
X87455014Y-89149109D01*
X87252980Y-89307393D01*
X87245626Y-89312469D01*
X87025989Y-89445245D01*
X87018076Y-89449398D01*
X86784030Y-89554733D01*
X86775675Y-89557901D01*
X86530652Y-89634254D01*
X86521976Y-89636393D01*
X86269521Y-89682656D01*
X86260650Y-89683733D01*
X86002232Y-89699365D01*
X85997764Y-89699500D01*
X81897645Y-89699500D01*
X81894747Y-89699728D01*
X81894730Y-89699522D01*
X81888666Y-89700000D01*
X70111334Y-89700000D01*
X70105269Y-89699522D01*
X70105253Y-89699728D01*
X70102355Y-89699500D01*
X70102352Y-89699500D01*
X70039562Y-89699500D01*
X66002236Y-89699500D01*
X65997768Y-89699365D01*
X65739349Y-89683733D01*
X65730478Y-89682656D01*
X65478023Y-89636393D01*
X65469347Y-89634254D01*
X65332021Y-89591461D01*
X65224320Y-89557899D01*
X65215973Y-89554734D01*
X64981923Y-89449398D01*
X64974010Y-89445245D01*
X64754373Y-89312469D01*
X64747019Y-89307393D01*
X64544985Y-89149109D01*
X64538296Y-89143183D01*
X64356816Y-88961703D01*
X64350890Y-88955014D01*
X64192603Y-88752976D01*
X64187530Y-88745626D01*
X64083411Y-88573394D01*
X64054751Y-88525984D01*
X64050601Y-88518076D01*
X63945261Y-88284017D01*
X63942103Y-88275688D01*
X63865742Y-88030639D01*
X63863609Y-88021989D01*
X63817342Y-87769512D01*
X63816267Y-87760660D01*
X63802673Y-87535932D01*
X76179500Y-87535932D01*
X76179500Y-87664067D01*
X76204497Y-87789739D01*
X76204498Y-87789742D01*
X76204499Y-87789744D01*
X76253535Y-87908127D01*
X76324724Y-88014669D01*
X76415331Y-88105276D01*
X76521873Y-88176465D01*
X76640256Y-88225501D01*
X76640258Y-88225501D01*
X76640260Y-88225502D01*
X76682903Y-88233984D01*
X76765931Y-88250500D01*
X76765933Y-88250500D01*
X76894067Y-88250500D01*
X76894069Y-88250500D01*
X77019744Y-88225501D01*
X77138127Y-88176465D01*
X77244669Y-88105276D01*
X77335276Y-88014669D01*
X77406465Y-87908127D01*
X77455501Y-87789744D01*
X77480500Y-87664069D01*
X77480500Y-87535931D01*
X77455501Y-87410256D01*
X77406465Y-87291873D01*
X77335276Y-87185331D01*
X77244669Y-87094724D01*
X77138127Y-87023535D01*
X77138124Y-87023533D01*
X77138123Y-87023533D01*
X77019742Y-86974498D01*
X77019739Y-86974497D01*
X76929696Y-86956586D01*
X76894069Y-86949500D01*
X76765931Y-86949500D01*
X76734726Y-86955707D01*
X76640260Y-86974497D01*
X76640257Y-86974498D01*
X76521876Y-87023533D01*
X76415331Y-87094723D01*
X76415330Y-87094725D01*
X76324725Y-87185330D01*
X76324723Y-87185331D01*
X76253533Y-87291876D01*
X76204498Y-87410257D01*
X76204497Y-87410260D01*
X76179500Y-87535932D01*
X63802673Y-87535932D01*
X63802673Y-87535931D01*
X63800635Y-87502231D01*
X63800500Y-87497763D01*
X63800500Y-84932484D01*
X64715000Y-84932484D01*
X64715000Y-85067515D01*
X64741341Y-85199946D01*
X64741343Y-85199953D01*
X64793018Y-85324706D01*
X64868037Y-85436981D01*
X64963519Y-85532463D01*
X65075794Y-85607482D01*
X65200547Y-85659157D01*
X65332984Y-85685500D01*
X65332985Y-85685500D01*
X65468015Y-85685500D01*
X65468016Y-85685500D01*
X65600453Y-85659157D01*
X65725206Y-85607482D01*
X65837481Y-85532463D01*
X65932963Y-85436981D01*
X66007982Y-85324706D01*
X66059657Y-85199953D01*
X66086000Y-85067516D01*
X66086000Y-84932484D01*
X66059657Y-84800047D01*
X66007982Y-84675294D01*
X65932963Y-84563019D01*
X65837481Y-84467537D01*
X65725206Y-84392518D01*
X65600453Y-84340843D01*
X65600446Y-84340841D01*
X65500675Y-84320996D01*
X65468016Y-84314500D01*
X65332984Y-84314500D01*
X65306785Y-84319711D01*
X65200553Y-84340841D01*
X65200546Y-84340843D01*
X65075793Y-84392518D01*
X64963519Y-84467536D01*
X64963518Y-84467538D01*
X64868038Y-84563018D01*
X64868036Y-84563019D01*
X64793018Y-84675293D01*
X64741343Y-84800046D01*
X64741341Y-84800053D01*
X64715000Y-84932484D01*
X63800500Y-84932484D01*
X63800500Y-83555932D01*
X79149500Y-83555932D01*
X79149500Y-83684067D01*
X79174497Y-83809739D01*
X79174498Y-83809742D01*
X79223535Y-83928127D01*
X79257452Y-83978888D01*
X79268501Y-84034437D01*
X79257452Y-84061112D01*
X79223535Y-84111872D01*
X79174498Y-84230257D01*
X79174497Y-84230260D01*
X79149500Y-84355932D01*
X79149500Y-84484067D01*
X79174497Y-84609739D01*
X79174498Y-84609742D01*
X79174499Y-84609744D01*
X79223535Y-84728127D01*
X79294724Y-84834669D01*
X79385331Y-84925276D01*
X79491873Y-84996465D01*
X79610256Y-85045501D01*
X79610258Y-85045501D01*
X79610260Y-85045502D01*
X79652903Y-85053984D01*
X79735931Y-85070500D01*
X79735933Y-85070500D01*
X79864067Y-85070500D01*
X79864069Y-85070500D01*
X79989744Y-85045501D01*
X80108127Y-84996465D01*
X80214669Y-84925276D01*
X80305276Y-84834669D01*
X80376465Y-84728127D01*
X80425501Y-84609744D01*
X80450500Y-84484069D01*
X80450500Y-84355931D01*
X80425501Y-84230256D01*
X80376465Y-84111873D01*
X80342546Y-84061111D01*
X80331498Y-84005564D01*
X80342547Y-83978888D01*
X80376465Y-83928127D01*
X80425501Y-83809744D01*
X80450500Y-83684069D01*
X80450500Y-83555931D01*
X80425501Y-83430256D01*
X80376465Y-83311873D01*
X80305276Y-83205331D01*
X80214669Y-83114724D01*
X80108127Y-83043535D01*
X80108124Y-83043533D01*
X80108123Y-83043533D01*
X79989742Y-82994498D01*
X79989739Y-82994497D01*
X79899696Y-82976586D01*
X79864069Y-82969500D01*
X79735931Y-82969500D01*
X79704726Y-82975707D01*
X79610260Y-82994497D01*
X79610257Y-82994498D01*
X79491876Y-83043533D01*
X79385331Y-83114723D01*
X79385330Y-83114725D01*
X79294725Y-83205330D01*
X79294723Y-83205331D01*
X79223533Y-83311876D01*
X79174498Y-83430257D01*
X79174497Y-83430260D01*
X79149500Y-83555932D01*
X63800500Y-83555932D01*
X63800500Y-81932484D01*
X64714500Y-81932484D01*
X64714500Y-82067515D01*
X64740841Y-82199946D01*
X64740843Y-82199953D01*
X64792518Y-82324706D01*
X64827102Y-82376466D01*
X64867537Y-82436981D01*
X64963019Y-82532463D01*
X65075294Y-82607482D01*
X65200047Y-82659157D01*
X65332484Y-82685500D01*
X65332485Y-82685500D01*
X65467515Y-82685500D01*
X65467516Y-82685500D01*
X65599953Y-82659157D01*
X65724706Y-82607482D01*
X65836981Y-82532463D01*
X65932463Y-82436981D01*
X66007482Y-82324706D01*
X66059157Y-82199953D01*
X66085500Y-82067516D01*
X66085500Y-81932484D01*
X66059157Y-81800047D01*
X66007482Y-81675294D01*
X65932463Y-81563019D01*
X65836981Y-81467537D01*
X65757510Y-81414437D01*
X65724706Y-81392518D01*
X65599953Y-81340843D01*
X65599946Y-81340841D01*
X65500175Y-81320996D01*
X65467516Y-81314500D01*
X65332484Y-81314500D01*
X65306285Y-81319711D01*
X65200053Y-81340841D01*
X65200046Y-81340843D01*
X65075293Y-81392518D01*
X64963019Y-81467536D01*
X64963018Y-81467538D01*
X64867538Y-81563018D01*
X64867536Y-81563019D01*
X64792518Y-81675293D01*
X64740843Y-81800046D01*
X64740841Y-81800053D01*
X64714500Y-81932484D01*
X63800500Y-81932484D01*
X63800500Y-80135932D01*
X67249500Y-80135932D01*
X67249500Y-80264067D01*
X67274497Y-80389739D01*
X67274498Y-80389742D01*
X67282113Y-80408127D01*
X67323535Y-80508127D01*
X67394724Y-80614669D01*
X67485331Y-80705276D01*
X67591873Y-80776465D01*
X67710256Y-80825501D01*
X67710258Y-80825501D01*
X67710260Y-80825502D01*
X67733788Y-80830182D01*
X67835931Y-80850500D01*
X67835933Y-80850500D01*
X67964067Y-80850500D01*
X67964069Y-80850500D01*
X68066211Y-80830182D01*
X68121760Y-80841231D01*
X68153226Y-80888323D01*
X68153227Y-80917194D01*
X68149500Y-80935931D01*
X68149500Y-80935932D01*
X68149500Y-80935934D01*
X68149500Y-81064067D01*
X68174497Y-81189739D01*
X68174498Y-81189741D01*
X68223535Y-81308127D01*
X68257452Y-81358888D01*
X68268501Y-81414437D01*
X68257452Y-81441112D01*
X68223535Y-81491872D01*
X68174498Y-81610257D01*
X68174497Y-81610260D01*
X68149500Y-81735932D01*
X68149500Y-81864067D01*
X68174497Y-81989739D01*
X68174498Y-81989742D01*
X68207856Y-82070276D01*
X68223535Y-82108127D01*
X68294724Y-82214669D01*
X68385331Y-82305276D01*
X68491873Y-82376465D01*
X68610256Y-82425501D01*
X68610258Y-82425501D01*
X68610260Y-82425502D01*
X68652903Y-82433984D01*
X68735931Y-82450500D01*
X68735933Y-82450500D01*
X68864067Y-82450500D01*
X68864069Y-82450500D01*
X68989744Y-82425501D01*
X69108127Y-82376465D01*
X69214669Y-82305276D01*
X69305276Y-82214669D01*
X69376465Y-82108127D01*
X69425501Y-81989744D01*
X69450500Y-81864069D01*
X69450500Y-81735931D01*
X69425501Y-81610256D01*
X69380217Y-81500932D01*
X73899500Y-81500932D01*
X73899500Y-81629067D01*
X73924497Y-81754739D01*
X73924498Y-81754742D01*
X73951914Y-81820931D01*
X73973535Y-81873127D01*
X74044724Y-81979669D01*
X74135331Y-82070276D01*
X74241873Y-82141465D01*
X74360256Y-82190501D01*
X74360258Y-82190501D01*
X74360260Y-82190502D01*
X74373437Y-82193123D01*
X74485931Y-82215500D01*
X74485933Y-82215500D01*
X74614067Y-82215500D01*
X74614069Y-82215500D01*
X74739744Y-82190501D01*
X74858127Y-82141465D01*
X74883887Y-82124251D01*
X74939435Y-82113202D01*
X74966111Y-82124251D01*
X74991873Y-82141465D01*
X75110256Y-82190501D01*
X75110258Y-82190501D01*
X75110260Y-82190502D01*
X75123437Y-82193123D01*
X75235931Y-82215500D01*
X75235933Y-82215500D01*
X75364067Y-82215500D01*
X75364069Y-82215500D01*
X75489744Y-82190501D01*
X75608127Y-82141465D01*
X75714669Y-82070276D01*
X75805276Y-81979669D01*
X75876465Y-81873127D01*
X75898085Y-81820932D01*
X83049500Y-81820932D01*
X83049500Y-81949067D01*
X83074497Y-82074739D01*
X83074498Y-82074742D01*
X83122447Y-82190502D01*
X83123535Y-82193127D01*
X83194724Y-82299669D01*
X83285331Y-82390276D01*
X83391873Y-82461465D01*
X83510256Y-82510501D01*
X83510258Y-82510501D01*
X83510260Y-82510502D01*
X83552903Y-82518984D01*
X83635931Y-82535500D01*
X83635933Y-82535500D01*
X83764067Y-82535500D01*
X83764069Y-82535500D01*
X83889744Y-82510501D01*
X84008127Y-82461465D01*
X84114669Y-82390276D01*
X84205276Y-82299669D01*
X84276465Y-82193127D01*
X84325501Y-82074744D01*
X84350500Y-81949069D01*
X84350500Y-81820931D01*
X84325501Y-81695256D01*
X84276465Y-81576873D01*
X84205276Y-81470331D01*
X84114669Y-81379724D01*
X84107988Y-81375260D01*
X84056476Y-81340841D01*
X84008127Y-81308535D01*
X84008124Y-81308533D01*
X84008123Y-81308533D01*
X83889742Y-81259498D01*
X83889739Y-81259497D01*
X83799696Y-81241586D01*
X83764069Y-81234500D01*
X83635931Y-81234500D01*
X83604726Y-81240707D01*
X83510260Y-81259497D01*
X83510257Y-81259498D01*
X83391876Y-81308533D01*
X83285331Y-81379723D01*
X83285330Y-81379725D01*
X83194725Y-81470330D01*
X83194723Y-81470331D01*
X83123533Y-81576876D01*
X83074498Y-81695257D01*
X83074497Y-81695260D01*
X83049500Y-81820932D01*
X75898085Y-81820932D01*
X75925501Y-81754744D01*
X75950500Y-81629069D01*
X75950500Y-81500931D01*
X75928935Y-81392518D01*
X75925502Y-81375260D01*
X75925501Y-81375257D01*
X75911246Y-81340843D01*
X75876465Y-81256873D01*
X75805276Y-81150331D01*
X75714669Y-81059724D01*
X75608127Y-80988535D01*
X75608124Y-80988533D01*
X75608123Y-80988533D01*
X75489742Y-80939498D01*
X75489739Y-80939497D01*
X75399696Y-80921586D01*
X75364069Y-80914500D01*
X75235931Y-80914500D01*
X75204726Y-80920707D01*
X75110260Y-80939497D01*
X75110257Y-80939498D01*
X74991877Y-80988533D01*
X74991875Y-80988533D01*
X74991873Y-80988535D01*
X74966110Y-81005749D01*
X74910562Y-81016797D01*
X74883890Y-81005749D01*
X74858127Y-80988535D01*
X74739744Y-80939499D01*
X74739742Y-80939498D01*
X74739739Y-80939497D01*
X74649696Y-80921586D01*
X74614069Y-80914500D01*
X74485931Y-80914500D01*
X74454726Y-80920707D01*
X74360260Y-80939497D01*
X74360257Y-80939498D01*
X74241876Y-80988533D01*
X74135331Y-81059723D01*
X74135330Y-81059725D01*
X74044725Y-81150330D01*
X74044723Y-81150331D01*
X73973533Y-81256876D01*
X73924498Y-81375257D01*
X73924497Y-81375260D01*
X73899500Y-81500932D01*
X69380217Y-81500932D01*
X69376465Y-81491873D01*
X69340967Y-81438747D01*
X69339580Y-81436281D01*
X69336510Y-81410765D01*
X69331498Y-81385564D01*
X69333033Y-81381856D01*
X69332816Y-81380049D01*
X69334860Y-81377444D01*
X69342547Y-81358888D01*
X69376465Y-81308127D01*
X69425501Y-81189744D01*
X69450500Y-81064069D01*
X69450500Y-80935931D01*
X69433506Y-80850500D01*
X69425502Y-80810260D01*
X69425501Y-80810257D01*
X69415569Y-80786280D01*
X69376465Y-80691873D01*
X69342546Y-80641111D01*
X69331498Y-80585564D01*
X69342547Y-80558888D01*
X69376465Y-80508127D01*
X69425501Y-80389744D01*
X69450500Y-80264069D01*
X69450500Y-80135931D01*
X69432757Y-80046733D01*
X69430609Y-80035932D01*
X83899500Y-80035932D01*
X83899500Y-80164067D01*
X83924497Y-80289739D01*
X83924498Y-80289742D01*
X83965919Y-80389742D01*
X83973535Y-80408127D01*
X84044724Y-80514669D01*
X84135331Y-80605276D01*
X84241873Y-80676465D01*
X84360256Y-80725501D01*
X84360258Y-80725501D01*
X84360260Y-80725502D01*
X84402903Y-80733984D01*
X84485931Y-80750500D01*
X84485933Y-80750500D01*
X84614067Y-80750500D01*
X84614069Y-80750500D01*
X84739744Y-80725501D01*
X84858127Y-80676465D01*
X84964669Y-80605276D01*
X85055276Y-80514669D01*
X85126465Y-80408127D01*
X85175501Y-80289744D01*
X85200500Y-80164069D01*
X85200500Y-80035931D01*
X85175501Y-79910256D01*
X85126465Y-79791873D01*
X85055276Y-79685331D01*
X84964669Y-79594724D01*
X84858127Y-79523535D01*
X84858124Y-79523533D01*
X84858123Y-79523533D01*
X84739742Y-79474498D01*
X84739739Y-79474497D01*
X84649696Y-79456586D01*
X84614069Y-79449500D01*
X84485931Y-79449500D01*
X84454726Y-79455707D01*
X84360260Y-79474497D01*
X84360257Y-79474498D01*
X84241876Y-79523533D01*
X84135331Y-79594723D01*
X84135330Y-79594725D01*
X84044725Y-79685330D01*
X84044723Y-79685331D01*
X83973533Y-79791876D01*
X83924498Y-79910257D01*
X83924497Y-79910260D01*
X83899500Y-80035932D01*
X69430609Y-80035932D01*
X69425502Y-80010260D01*
X69425501Y-80010257D01*
X69384079Y-79910256D01*
X69376465Y-79891873D01*
X69305276Y-79785331D01*
X69214669Y-79694724D01*
X69200611Y-79685331D01*
X69179473Y-79671207D01*
X69108127Y-79623535D01*
X69108124Y-79623533D01*
X69108123Y-79623533D01*
X68989742Y-79574498D01*
X68989739Y-79574497D01*
X68899696Y-79556586D01*
X68864069Y-79549500D01*
X68735931Y-79549500D01*
X68704726Y-79555707D01*
X68610260Y-79574497D01*
X68610257Y-79574498D01*
X68491876Y-79623533D01*
X68391112Y-79690861D01*
X68335563Y-79701910D01*
X68308888Y-79690861D01*
X68280481Y-79671880D01*
X68208127Y-79623535D01*
X68208124Y-79623533D01*
X68208123Y-79623533D01*
X68089742Y-79574498D01*
X68089739Y-79574497D01*
X67999696Y-79556586D01*
X67964069Y-79549500D01*
X67835931Y-79549500D01*
X67804726Y-79555707D01*
X67710260Y-79574497D01*
X67710257Y-79574498D01*
X67591876Y-79623533D01*
X67485331Y-79694723D01*
X67485330Y-79694725D01*
X67394725Y-79785330D01*
X67394723Y-79785331D01*
X67323533Y-79891876D01*
X67274498Y-80010257D01*
X67274497Y-80010260D01*
X67249500Y-80135932D01*
X63800500Y-80135932D01*
X63800500Y-78535932D01*
X70149500Y-78535932D01*
X70149500Y-78664067D01*
X70174497Y-78789739D01*
X70174498Y-78789742D01*
X70174499Y-78789744D01*
X70223535Y-78908127D01*
X70294724Y-79014669D01*
X70385331Y-79105276D01*
X70491873Y-79176465D01*
X70610256Y-79225501D01*
X70610258Y-79225501D01*
X70610260Y-79225502D01*
X70652903Y-79233984D01*
X70735931Y-79250500D01*
X70735933Y-79250500D01*
X70864067Y-79250500D01*
X70864069Y-79250500D01*
X70989744Y-79225501D01*
X71108127Y-79176465D01*
X71214669Y-79105276D01*
X71305276Y-79014669D01*
X71376465Y-78908127D01*
X71425501Y-78789744D01*
X71450500Y-78664069D01*
X71450500Y-78535931D01*
X71425501Y-78410256D01*
X71376465Y-78291873D01*
X71314076Y-78198501D01*
X75003273Y-78198501D01*
X75003273Y-78198502D01*
X75076584Y-78247487D01*
X75208524Y-78302138D01*
X75208531Y-78302140D01*
X75348595Y-78330000D01*
X75491405Y-78330000D01*
X75631468Y-78302140D01*
X75631475Y-78302138D01*
X75763412Y-78247488D01*
X75836725Y-78198501D01*
X76003273Y-78198501D01*
X76003273Y-78198502D01*
X76076584Y-78247487D01*
X76208524Y-78302138D01*
X76208531Y-78302140D01*
X76348595Y-78330000D01*
X76491405Y-78330000D01*
X76631468Y-78302140D01*
X76631475Y-78302138D01*
X76763412Y-78247488D01*
X76836725Y-78198501D01*
X76420000Y-77781776D01*
X76003273Y-78198501D01*
X75836725Y-78198501D01*
X75420000Y-77781776D01*
X75003273Y-78198501D01*
X71314076Y-78198501D01*
X71305276Y-78185331D01*
X71214669Y-78094724D01*
X71187342Y-78076465D01*
X71179473Y-78071207D01*
X71108127Y-78023535D01*
X71108124Y-78023533D01*
X71108123Y-78023533D01*
X70989742Y-77974498D01*
X70989739Y-77974497D01*
X70899696Y-77956586D01*
X70864069Y-77949500D01*
X70735931Y-77949500D01*
X70704726Y-77955707D01*
X70610260Y-77974497D01*
X70610257Y-77974498D01*
X70491876Y-78023533D01*
X70385331Y-78094723D01*
X70385330Y-78094725D01*
X70294725Y-78185330D01*
X70294723Y-78185331D01*
X70223533Y-78291876D01*
X70174498Y-78410257D01*
X70174497Y-78410260D01*
X70149500Y-78535932D01*
X63800500Y-78535932D01*
X63800500Y-76685931D01*
X71099500Y-76685931D01*
X71099500Y-76814069D01*
X71099979Y-76816475D01*
X71124497Y-76939739D01*
X71124498Y-76939742D01*
X71124499Y-76939744D01*
X71173535Y-77058127D01*
X71190749Y-77083889D01*
X71201797Y-77139438D01*
X71190749Y-77166109D01*
X71173535Y-77191873D01*
X71173533Y-77191875D01*
X71173533Y-77191877D01*
X71124498Y-77310257D01*
X71124497Y-77310260D01*
X71099500Y-77435932D01*
X71099500Y-77564067D01*
X71124497Y-77689739D01*
X71124498Y-77689742D01*
X71141173Y-77730000D01*
X71173535Y-77808127D01*
X71244724Y-77914669D01*
X71335331Y-78005276D01*
X71441873Y-78076465D01*
X71560256Y-78125501D01*
X71560258Y-78125501D01*
X71560260Y-78125502D01*
X71602903Y-78133984D01*
X71685931Y-78150500D01*
X71685933Y-78150500D01*
X71814067Y-78150500D01*
X71814069Y-78150500D01*
X71939744Y-78125501D01*
X72058127Y-78076465D01*
X72164669Y-78005276D01*
X72255276Y-77914669D01*
X72326465Y-77808127D01*
X72375501Y-77689744D01*
X72400500Y-77564069D01*
X72400500Y-77533594D01*
X74695000Y-77533594D01*
X74695000Y-77676405D01*
X74722859Y-77816468D01*
X74722861Y-77816475D01*
X74777511Y-77948412D01*
X74826496Y-78021724D01*
X75243223Y-77604999D01*
X75218360Y-77580136D01*
X75295000Y-77580136D01*
X75295000Y-77629864D01*
X75314030Y-77675807D01*
X75349193Y-77710970D01*
X75395136Y-77730000D01*
X75444864Y-77730000D01*
X75490807Y-77710970D01*
X75525970Y-77675807D01*
X75545000Y-77629864D01*
X75545000Y-77605000D01*
X75596776Y-77605000D01*
X75920000Y-77928224D01*
X76243224Y-77605000D01*
X76218360Y-77580136D01*
X76295000Y-77580136D01*
X76295000Y-77629864D01*
X76314030Y-77675807D01*
X76349193Y-77710970D01*
X76395136Y-77730000D01*
X76444864Y-77730000D01*
X76490807Y-77710970D01*
X76525970Y-77675807D01*
X76545000Y-77629864D01*
X76545000Y-77604999D01*
X76596776Y-77604999D01*
X76596776Y-77605000D01*
X77013501Y-78021725D01*
X77062488Y-77948412D01*
X77117138Y-77816475D01*
X77117140Y-77816468D01*
X77145000Y-77676405D01*
X77145000Y-77533594D01*
X77117140Y-77393531D01*
X77117138Y-77393524D01*
X77062487Y-77261584D01*
X77013501Y-77188273D01*
X76596776Y-77604999D01*
X76545000Y-77604999D01*
X76545000Y-77580136D01*
X76525970Y-77534193D01*
X76490807Y-77499030D01*
X76444864Y-77480000D01*
X76395136Y-77480000D01*
X76349193Y-77499030D01*
X76314030Y-77534193D01*
X76295000Y-77580136D01*
X76218360Y-77580136D01*
X75920000Y-77281776D01*
X75596776Y-77605000D01*
X75545000Y-77605000D01*
X75545000Y-77580136D01*
X75525970Y-77534193D01*
X75490807Y-77499030D01*
X75444864Y-77480000D01*
X75395136Y-77480000D01*
X75349193Y-77499030D01*
X75314030Y-77534193D01*
X75295000Y-77580136D01*
X75218360Y-77580136D01*
X74826496Y-77188273D01*
X74777513Y-77261583D01*
X74722861Y-77393524D01*
X74722859Y-77393531D01*
X74695000Y-77533594D01*
X72400500Y-77533594D01*
X72400500Y-77435931D01*
X72375501Y-77310256D01*
X72326465Y-77191873D01*
X72309251Y-77166112D01*
X72298202Y-77110565D01*
X72300507Y-77105000D01*
X75096776Y-77105000D01*
X75420000Y-77428224D01*
X75743224Y-77105000D01*
X75718360Y-77080136D01*
X75795000Y-77080136D01*
X75795000Y-77129864D01*
X75814030Y-77175807D01*
X75849193Y-77210970D01*
X75895136Y-77230000D01*
X75944864Y-77230000D01*
X75990807Y-77210970D01*
X76025970Y-77175807D01*
X76045000Y-77129864D01*
X76045000Y-77105000D01*
X76096776Y-77105000D01*
X76420000Y-77428224D01*
X76743224Y-77105000D01*
X76420000Y-76781776D01*
X76096776Y-77105000D01*
X76045000Y-77105000D01*
X76045000Y-77080136D01*
X76025970Y-77034193D01*
X75990807Y-76999030D01*
X75944864Y-76980000D01*
X75895136Y-76980000D01*
X75849193Y-76999030D01*
X75814030Y-77034193D01*
X75795000Y-77080136D01*
X75718360Y-77080136D01*
X75420000Y-76781776D01*
X75096776Y-77105000D01*
X72300507Y-77105000D01*
X72309252Y-77083887D01*
X72326465Y-77058127D01*
X72375501Y-76939744D01*
X72400500Y-76814069D01*
X72400500Y-76685931D01*
X72375501Y-76560256D01*
X72364457Y-76533594D01*
X74695000Y-76533594D01*
X74695000Y-76676405D01*
X74722859Y-76816468D01*
X74722861Y-76816475D01*
X74777511Y-76948412D01*
X74826496Y-77021724D01*
X75243223Y-76604999D01*
X75218360Y-76580136D01*
X75295000Y-76580136D01*
X75295000Y-76629864D01*
X75314030Y-76675807D01*
X75349193Y-76710970D01*
X75395136Y-76730000D01*
X75444864Y-76730000D01*
X75490807Y-76710970D01*
X75525970Y-76675807D01*
X75545000Y-76629864D01*
X75545000Y-76605000D01*
X75596776Y-76605000D01*
X75920000Y-76928224D01*
X76243224Y-76605000D01*
X76218360Y-76580136D01*
X76295000Y-76580136D01*
X76295000Y-76629864D01*
X76314030Y-76675807D01*
X76349193Y-76710970D01*
X76395136Y-76730000D01*
X76444864Y-76730000D01*
X76490807Y-76710970D01*
X76525970Y-76675807D01*
X76545000Y-76629864D01*
X76545000Y-76604999D01*
X76596776Y-76604999D01*
X76596776Y-76605000D01*
X77013501Y-77021725D01*
X77062488Y-76948412D01*
X77117138Y-76816475D01*
X77117140Y-76816468D01*
X77145000Y-76676405D01*
X77145000Y-76533594D01*
X77117140Y-76393531D01*
X77117138Y-76393524D01*
X77062487Y-76261584D01*
X77013501Y-76188273D01*
X76596776Y-76604999D01*
X76545000Y-76604999D01*
X76545000Y-76580136D01*
X76525970Y-76534193D01*
X76490807Y-76499030D01*
X76444864Y-76480000D01*
X76395136Y-76480000D01*
X76349193Y-76499030D01*
X76314030Y-76534193D01*
X76295000Y-76580136D01*
X76218360Y-76580136D01*
X75920000Y-76281776D01*
X75596776Y-76605000D01*
X75545000Y-76605000D01*
X75545000Y-76580136D01*
X75525970Y-76534193D01*
X75490807Y-76499030D01*
X75444864Y-76480000D01*
X75395136Y-76480000D01*
X75349193Y-76499030D01*
X75314030Y-76534193D01*
X75295000Y-76580136D01*
X75218360Y-76580136D01*
X74826496Y-76188273D01*
X74777513Y-76261583D01*
X74722861Y-76393524D01*
X74722859Y-76393531D01*
X74695000Y-76533594D01*
X72364457Y-76533594D01*
X72337012Y-76467336D01*
X72326467Y-76441877D01*
X72326466Y-76441875D01*
X72326465Y-76441873D01*
X72255276Y-76335331D01*
X72164669Y-76244724D01*
X72058127Y-76173535D01*
X72058124Y-76173533D01*
X72058123Y-76173533D01*
X71939742Y-76124498D01*
X71939739Y-76124497D01*
X71875160Y-76111652D01*
X71863890Y-76109410D01*
X71814069Y-76099500D01*
X71685931Y-76099500D01*
X71654726Y-76105707D01*
X71560260Y-76124497D01*
X71560257Y-76124498D01*
X71441876Y-76173533D01*
X71335331Y-76244723D01*
X71335330Y-76244725D01*
X71244725Y-76335330D01*
X71244723Y-76335331D01*
X71173533Y-76441876D01*
X71124498Y-76560257D01*
X71124497Y-76560260D01*
X71103043Y-76668117D01*
X71099500Y-76685931D01*
X63800500Y-76685931D01*
X63800500Y-75524999D01*
X64258211Y-75524999D01*
X64258212Y-75525000D01*
X64825758Y-75525000D01*
X64820444Y-75534204D01*
X64800000Y-75610504D01*
X64800000Y-75689496D01*
X64820444Y-75765796D01*
X64825758Y-75775000D01*
X64258211Y-75775000D01*
X64282663Y-75897929D01*
X64282665Y-75897936D01*
X64346740Y-76052626D01*
X64439761Y-76191843D01*
X64558156Y-76310238D01*
X64697373Y-76403259D01*
X64852063Y-76467334D01*
X64852069Y-76467336D01*
X65016284Y-76500000D01*
X65375000Y-76500000D01*
X65375000Y-75950000D01*
X65625000Y-75950000D01*
X65625000Y-76500000D01*
X65983716Y-76500000D01*
X66147930Y-76467336D01*
X66147936Y-76467334D01*
X66302626Y-76403259D01*
X66441843Y-76310238D01*
X66441845Y-76310237D01*
X66560237Y-76191845D01*
X66560238Y-76191843D01*
X66653259Y-76052626D01*
X66717334Y-75897936D01*
X66717336Y-75897929D01*
X66741788Y-75775000D01*
X66174242Y-75775000D01*
X66179556Y-75765796D01*
X66200000Y-75689496D01*
X66200000Y-75610504D01*
X66179556Y-75534204D01*
X66174242Y-75525000D01*
X66741788Y-75525000D01*
X66741788Y-75524999D01*
X68278211Y-75524999D01*
X68278212Y-75525000D01*
X68845758Y-75525000D01*
X68840444Y-75534204D01*
X68820000Y-75610504D01*
X68820000Y-75689496D01*
X68840444Y-75765796D01*
X68845758Y-75775000D01*
X68278211Y-75775000D01*
X68302663Y-75897929D01*
X68302665Y-75897936D01*
X68366740Y-76052626D01*
X68459761Y-76191843D01*
X68578156Y-76310238D01*
X68717373Y-76403259D01*
X68872063Y-76467334D01*
X68872069Y-76467336D01*
X69036284Y-76500000D01*
X69545000Y-76500000D01*
X69545000Y-75950000D01*
X69795000Y-75950000D01*
X69795000Y-76500000D01*
X70303716Y-76500000D01*
X70467930Y-76467336D01*
X70467936Y-76467334D01*
X70622626Y-76403259D01*
X70761843Y-76310238D01*
X70761845Y-76310237D01*
X70880237Y-76191845D01*
X70880238Y-76191843D01*
X70973259Y-76052626D01*
X70990296Y-76011496D01*
X75003273Y-76011496D01*
X75419999Y-76428223D01*
X75836725Y-76011496D01*
X76003273Y-76011496D01*
X76419999Y-76428223D01*
X76836725Y-76011496D01*
X76763412Y-75962511D01*
X76631475Y-75907861D01*
X76631468Y-75907859D01*
X76616459Y-75904874D01*
X76491405Y-75880000D01*
X76348595Y-75880000D01*
X76208531Y-75907859D01*
X76208524Y-75907861D01*
X76076583Y-75962513D01*
X76003273Y-76011496D01*
X75836725Y-76011496D01*
X75763412Y-75962511D01*
X75631475Y-75907861D01*
X75631468Y-75907859D01*
X75491405Y-75880000D01*
X75348595Y-75880000D01*
X75208531Y-75907859D01*
X75208524Y-75907861D01*
X75076583Y-75962513D01*
X75003273Y-76011496D01*
X70990296Y-76011496D01*
X71037334Y-75897936D01*
X71037336Y-75897929D01*
X71049668Y-75835931D01*
X77999500Y-75835931D01*
X77999500Y-75964069D01*
X78006586Y-75999696D01*
X78024497Y-76089739D01*
X78024498Y-76089742D01*
X78066790Y-76191845D01*
X78073535Y-76208127D01*
X78097989Y-76244725D01*
X78141762Y-76310237D01*
X78144724Y-76314669D01*
X78235331Y-76405276D01*
X78341873Y-76476465D01*
X78460256Y-76525501D01*
X78460258Y-76525501D01*
X78460260Y-76525502D01*
X78500941Y-76533594D01*
X78585931Y-76550500D01*
X78585933Y-76550500D01*
X78714067Y-76550500D01*
X78714069Y-76550500D01*
X78839744Y-76525501D01*
X78958127Y-76476465D01*
X78996387Y-76450899D01*
X79051936Y-76439850D01*
X79078612Y-76450899D01*
X79116873Y-76476465D01*
X79235256Y-76525501D01*
X79235258Y-76525501D01*
X79235260Y-76525502D01*
X79275941Y-76533594D01*
X79360931Y-76550500D01*
X79360933Y-76550500D01*
X79489067Y-76550500D01*
X79489069Y-76550500D01*
X79614744Y-76525501D01*
X79733127Y-76476465D01*
X79839669Y-76405276D01*
X79930276Y-76314669D01*
X80001465Y-76208127D01*
X80050501Y-76089744D01*
X80075500Y-75964069D01*
X80075500Y-75835931D01*
X80050501Y-75710256D01*
X80001465Y-75591873D01*
X79930276Y-75485331D01*
X79839669Y-75394724D01*
X79839667Y-75394723D01*
X79839664Y-75394720D01*
X79830841Y-75388825D01*
X79744197Y-75330932D01*
X83049500Y-75330932D01*
X83049500Y-75459067D01*
X83074497Y-75584739D01*
X83074498Y-75584742D01*
X83074499Y-75584744D01*
X83123535Y-75703127D01*
X83194724Y-75809669D01*
X83285331Y-75900276D01*
X83391873Y-75971465D01*
X83510256Y-76020501D01*
X83510258Y-76020501D01*
X83510260Y-76020502D01*
X83552903Y-76028984D01*
X83635931Y-76045500D01*
X83635933Y-76045500D01*
X83764067Y-76045500D01*
X83764069Y-76045500D01*
X83889744Y-76020501D01*
X84008127Y-75971465D01*
X84114669Y-75900276D01*
X84205276Y-75809669D01*
X84276465Y-75703127D01*
X84325501Y-75584744D01*
X84350500Y-75459069D01*
X84350500Y-75330931D01*
X84325501Y-75205256D01*
X84276465Y-75086873D01*
X84205276Y-74980331D01*
X84114669Y-74889724D01*
X84008127Y-74818535D01*
X84008124Y-74818533D01*
X84008123Y-74818533D01*
X83889742Y-74769498D01*
X83889739Y-74769497D01*
X83799696Y-74751586D01*
X83764069Y-74744500D01*
X83635931Y-74744500D01*
X83604726Y-74750707D01*
X83510260Y-74769497D01*
X83510257Y-74769498D01*
X83391876Y-74818533D01*
X83285331Y-74889723D01*
X83285330Y-74889725D01*
X83194725Y-74980330D01*
X83194723Y-74980331D01*
X83123533Y-75086876D01*
X83074498Y-75205257D01*
X83074497Y-75205260D01*
X83049500Y-75330932D01*
X79744197Y-75330932D01*
X79733127Y-75323535D01*
X79733124Y-75323533D01*
X79733123Y-75323533D01*
X79614742Y-75274498D01*
X79614739Y-75274497D01*
X79524696Y-75256586D01*
X79489069Y-75249500D01*
X79360931Y-75249500D01*
X79329726Y-75255707D01*
X79235260Y-75274497D01*
X79235257Y-75274498D01*
X79116869Y-75323536D01*
X79078611Y-75349099D01*
X79023062Y-75360148D01*
X78996389Y-75349099D01*
X78958130Y-75323536D01*
X78839742Y-75274498D01*
X78839739Y-75274497D01*
X78749696Y-75256586D01*
X78714069Y-75249500D01*
X78585931Y-75249500D01*
X78554726Y-75255707D01*
X78460260Y-75274497D01*
X78460257Y-75274498D01*
X78341876Y-75323533D01*
X78235331Y-75394723D01*
X78235330Y-75394725D01*
X78144725Y-75485330D01*
X78144723Y-75485331D01*
X78073533Y-75591876D01*
X78024498Y-75710257D01*
X78024497Y-75710260D01*
X78013451Y-75765796D01*
X77999500Y-75835931D01*
X71049668Y-75835931D01*
X71061788Y-75775000D01*
X70494242Y-75775000D01*
X70499556Y-75765796D01*
X70520000Y-75689496D01*
X70520000Y-75610504D01*
X70499556Y-75534204D01*
X70494242Y-75525000D01*
X71061788Y-75525000D01*
X71061788Y-75524999D01*
X71037336Y-75402070D01*
X71037334Y-75402063D01*
X70973259Y-75247373D01*
X70880238Y-75108156D01*
X70761843Y-74989761D01*
X70622626Y-74896740D01*
X70467936Y-74832665D01*
X70467930Y-74832663D01*
X70303716Y-74800000D01*
X69795000Y-74800000D01*
X69795000Y-75350000D01*
X69545000Y-75350000D01*
X69545000Y-74805277D01*
X69518156Y-74784150D01*
X69515884Y-74780102D01*
X69511597Y-74778326D01*
X69502313Y-74755912D01*
X69490443Y-74734756D01*
X69491699Y-74730288D01*
X69489923Y-74726000D01*
X69499206Y-74703587D01*
X69505773Y-74680233D01*
X69509820Y-74677961D01*
X69511597Y-74673674D01*
X69520561Y-74666794D01*
X69520308Y-74666464D01*
X69524153Y-74663513D01*
X69524152Y-74663513D01*
X69524155Y-74663512D01*
X69628512Y-74559155D01*
X69670787Y-74485932D01*
X76024500Y-74485932D01*
X76024500Y-74614067D01*
X76049497Y-74739739D01*
X76049498Y-74739742D01*
X76087686Y-74831937D01*
X76098535Y-74858127D01*
X76169724Y-74964669D01*
X76260331Y-75055276D01*
X76366873Y-75126465D01*
X76485256Y-75175501D01*
X76485258Y-75175501D01*
X76485260Y-75175502D01*
X76527903Y-75183984D01*
X76610931Y-75200500D01*
X76610933Y-75200500D01*
X76739067Y-75200500D01*
X76739069Y-75200500D01*
X76864744Y-75175501D01*
X76983127Y-75126465D01*
X77089669Y-75055276D01*
X77180276Y-74964669D01*
X77251465Y-74858127D01*
X77300501Y-74739744D01*
X77325500Y-74614069D01*
X77325500Y-74485931D01*
X77300501Y-74360256D01*
X77251465Y-74241873D01*
X77180276Y-74135331D01*
X77089669Y-74044724D01*
X76983127Y-73973535D01*
X76983124Y-73973533D01*
X76983123Y-73973533D01*
X76864742Y-73924498D01*
X76864739Y-73924497D01*
X76774696Y-73906586D01*
X76739069Y-73899500D01*
X76610931Y-73899500D01*
X76579726Y-73905707D01*
X76485260Y-73924497D01*
X76485257Y-73924498D01*
X76366876Y-73973533D01*
X76260331Y-74044723D01*
X76260330Y-74044725D01*
X76169725Y-74135330D01*
X76169723Y-74135331D01*
X76098533Y-74241876D01*
X76049498Y-74360257D01*
X76049497Y-74360260D01*
X76024500Y-74485932D01*
X69670787Y-74485932D01*
X69702303Y-74431345D01*
X69740499Y-74288793D01*
X69740500Y-74288793D01*
X69740500Y-74141207D01*
X69740499Y-74141206D01*
X69730871Y-74105275D01*
X69702303Y-73998655D01*
X69628512Y-73870845D01*
X69524155Y-73766488D01*
X69396349Y-73692699D01*
X69396340Y-73692695D01*
X69253793Y-73654500D01*
X69253791Y-73654500D01*
X69106209Y-73654500D01*
X69106207Y-73654500D01*
X68963659Y-73692695D01*
X68963650Y-73692699D01*
X68835844Y-73766488D01*
X68731488Y-73870844D01*
X68657699Y-73998650D01*
X68657695Y-73998659D01*
X68619500Y-74141206D01*
X68619500Y-74288793D01*
X68657695Y-74431340D01*
X68657699Y-74431349D01*
X68689212Y-74485931D01*
X68731488Y-74559155D01*
X68835845Y-74663512D01*
X68864807Y-74680233D01*
X68892760Y-74696372D01*
X68927239Y-74741306D01*
X68919846Y-74797458D01*
X68875506Y-74831480D01*
X68875546Y-74831609D01*
X68875204Y-74831712D01*
X68874912Y-74831937D01*
X68872980Y-74832387D01*
X68872063Y-74832665D01*
X68717373Y-74896740D01*
X68578156Y-74989761D01*
X68578155Y-74989763D01*
X68459763Y-75108155D01*
X68459761Y-75108156D01*
X68366740Y-75247373D01*
X68302665Y-75402063D01*
X68302663Y-75402070D01*
X68278211Y-75524999D01*
X66741788Y-75524999D01*
X66717336Y-75402070D01*
X66717334Y-75402063D01*
X66653259Y-75247373D01*
X66560238Y-75108156D01*
X66441843Y-74989761D01*
X66302626Y-74896740D01*
X66147936Y-74832665D01*
X66147930Y-74832663D01*
X65983716Y-74800000D01*
X65625000Y-74800000D01*
X65625000Y-75350000D01*
X65375000Y-75350000D01*
X65375000Y-74800000D01*
X65016284Y-74800000D01*
X64852069Y-74832663D01*
X64852063Y-74832665D01*
X64697373Y-74896740D01*
X64558156Y-74989761D01*
X64558155Y-74989763D01*
X64439763Y-75108155D01*
X64439761Y-75108156D01*
X64346740Y-75247373D01*
X64282665Y-75402063D01*
X64282663Y-75402070D01*
X64258211Y-75524999D01*
X63800500Y-75524999D01*
X63800500Y-73435932D01*
X70849500Y-73435932D01*
X70849500Y-73564067D01*
X70874497Y-73689739D01*
X70874498Y-73689742D01*
X70915919Y-73789742D01*
X70923535Y-73808127D01*
X70994724Y-73914669D01*
X71085331Y-74005276D01*
X71191873Y-74076465D01*
X71310256Y-74125501D01*
X71310258Y-74125501D01*
X71310260Y-74125502D01*
X71352903Y-74133984D01*
X71435931Y-74150500D01*
X71435933Y-74150500D01*
X71564067Y-74150500D01*
X71564069Y-74150500D01*
X71689744Y-74125501D01*
X71808127Y-74076465D01*
X71914669Y-74005276D01*
X72005276Y-73914669D01*
X72076465Y-73808127D01*
X72125501Y-73689744D01*
X72150500Y-73564069D01*
X72150500Y-73535932D01*
X83899500Y-73535932D01*
X83899500Y-73664067D01*
X83924497Y-73789739D01*
X83924498Y-73789742D01*
X83969961Y-73899500D01*
X83973535Y-73908127D01*
X84044724Y-74014669D01*
X84135331Y-74105276D01*
X84241873Y-74176465D01*
X84360256Y-74225501D01*
X84360258Y-74225501D01*
X84360260Y-74225502D01*
X84402903Y-74233984D01*
X84485931Y-74250500D01*
X84485933Y-74250500D01*
X84614067Y-74250500D01*
X84614069Y-74250500D01*
X84739744Y-74225501D01*
X84858127Y-74176465D01*
X84964669Y-74105276D01*
X85055276Y-74014669D01*
X85126465Y-73908127D01*
X85175501Y-73789744D01*
X85200500Y-73664069D01*
X85200500Y-73535931D01*
X85188168Y-73473939D01*
X85175502Y-73410260D01*
X85175501Y-73410257D01*
X85134079Y-73310256D01*
X85126465Y-73291873D01*
X85055276Y-73185331D01*
X84964669Y-73094724D01*
X84950611Y-73085331D01*
X84929473Y-73071207D01*
X84858127Y-73023535D01*
X84858124Y-73023533D01*
X84858123Y-73023533D01*
X84739742Y-72974498D01*
X84739739Y-72974497D01*
X84649696Y-72956586D01*
X84614069Y-72949500D01*
X84485931Y-72949500D01*
X84454726Y-72955707D01*
X84360260Y-72974497D01*
X84360257Y-72974498D01*
X84241876Y-73023533D01*
X84135331Y-73094723D01*
X84135330Y-73094725D01*
X84044725Y-73185330D01*
X84044723Y-73185331D01*
X83973533Y-73291876D01*
X83924498Y-73410257D01*
X83924497Y-73410260D01*
X83899500Y-73535932D01*
X72150500Y-73535932D01*
X72150500Y-73435931D01*
X72125501Y-73310256D01*
X72076465Y-73191873D01*
X72005276Y-73085331D01*
X71914669Y-72994724D01*
X71808127Y-72923535D01*
X71808124Y-72923533D01*
X71808123Y-72923533D01*
X71689742Y-72874498D01*
X71689739Y-72874497D01*
X71599696Y-72856586D01*
X71564069Y-72849500D01*
X71435931Y-72849500D01*
X71404726Y-72855707D01*
X71310260Y-72874497D01*
X71310257Y-72874498D01*
X71191876Y-72923533D01*
X71085331Y-72994723D01*
X71085330Y-72994725D01*
X70994725Y-73085330D01*
X70994723Y-73085331D01*
X70923533Y-73191876D01*
X70874498Y-73310257D01*
X70874497Y-73310260D01*
X70849500Y-73435932D01*
X63800500Y-73435932D01*
X63800500Y-70929453D01*
X78599500Y-70929453D01*
X78599500Y-71410546D01*
X78627828Y-71589406D01*
X78627831Y-71589419D01*
X78683787Y-71761635D01*
X78683788Y-71761638D01*
X78683789Y-71761639D01*
X78766004Y-71922994D01*
X78872447Y-72069501D01*
X79000499Y-72197553D01*
X79147006Y-72303996D01*
X79308361Y-72386211D01*
X79308364Y-72386212D01*
X79308363Y-72386212D01*
X79480580Y-72442168D01*
X79480586Y-72442169D01*
X79480591Y-72442171D01*
X79599833Y-72461057D01*
X79659453Y-72470500D01*
X79659454Y-72470500D01*
X79840547Y-72470500D01*
X79885261Y-72463417D01*
X80019409Y-72442171D01*
X80019416Y-72442168D01*
X80019419Y-72442168D01*
X80097601Y-72416765D01*
X80191639Y-72386211D01*
X80352994Y-72303996D01*
X80499501Y-72197553D01*
X80627553Y-72069501D01*
X80733996Y-71922994D01*
X80816211Y-71761639D01*
X80848192Y-71663211D01*
X80855622Y-71640344D01*
X80892404Y-71597277D01*
X80948867Y-71592833D01*
X80991934Y-71629615D01*
X81000000Y-71663211D01*
X81000000Y-71985641D01*
X81002900Y-72022493D01*
X81048718Y-72180199D01*
X81132317Y-72321556D01*
X81248443Y-72437682D01*
X81389800Y-72521281D01*
X81547508Y-72567099D01*
X81547505Y-72567099D01*
X81584359Y-72570000D01*
X82125000Y-72570000D01*
X82125000Y-71654144D01*
X82184174Y-71670000D01*
X82315826Y-71670000D01*
X82375000Y-71654144D01*
X82375000Y-72570000D01*
X82915641Y-72570000D01*
X82952493Y-72567099D01*
X83110199Y-72521281D01*
X83251556Y-72437682D01*
X83367682Y-72321556D01*
X83451281Y-72180199D01*
X83497099Y-72022493D01*
X83500000Y-71985641D01*
X83500000Y-71295000D01*
X82734144Y-71295000D01*
X82750000Y-71235826D01*
X82750000Y-71104174D01*
X82734144Y-71045000D01*
X83500000Y-71045000D01*
X83500000Y-70354358D01*
X83497099Y-70317506D01*
X83451281Y-70159800D01*
X83367682Y-70018443D01*
X83251556Y-69902317D01*
X83110199Y-69818718D01*
X82952491Y-69772900D01*
X82952494Y-69772900D01*
X82915641Y-69770000D01*
X82375000Y-69770000D01*
X82375000Y-70685855D01*
X82315826Y-70670000D01*
X82184174Y-70670000D01*
X82125000Y-70685855D01*
X82125000Y-69770000D01*
X81584359Y-69770000D01*
X81547506Y-69772900D01*
X81389800Y-69818718D01*
X81248443Y-69902317D01*
X81132317Y-70018443D01*
X81048718Y-70159800D01*
X81002900Y-70317506D01*
X81000000Y-70354358D01*
X81000000Y-70676788D01*
X80978326Y-70729114D01*
X80926000Y-70750788D01*
X80873674Y-70729114D01*
X80855622Y-70699655D01*
X80816212Y-70578364D01*
X80816211Y-70578363D01*
X80816211Y-70578361D01*
X80733996Y-70417006D01*
X80627553Y-70270499D01*
X80499501Y-70142447D01*
X80414128Y-70080420D01*
X80352996Y-70036005D01*
X80191635Y-69953787D01*
X80191636Y-69953787D01*
X80019419Y-69897831D01*
X80019406Y-69897828D01*
X79840547Y-69869500D01*
X79840546Y-69869500D01*
X79659454Y-69869500D01*
X79659453Y-69869500D01*
X79480593Y-69897828D01*
X79480580Y-69897831D01*
X79308364Y-69953787D01*
X79147004Y-70036005D01*
X79147003Y-70036005D01*
X79000503Y-70142444D01*
X79000499Y-70142447D01*
X78872447Y-70270499D01*
X78872444Y-70270502D01*
X78872444Y-70270503D01*
X78766005Y-70417003D01*
X78766005Y-70417004D01*
X78683787Y-70578364D01*
X78627831Y-70750580D01*
X78627828Y-70750593D01*
X78599500Y-70929453D01*
X63800500Y-70929453D01*
X63800500Y-66874999D01*
X64258211Y-66874999D01*
X64258212Y-66875000D01*
X64825758Y-66875000D01*
X64820444Y-66884204D01*
X64800000Y-66960504D01*
X64800000Y-67039496D01*
X64820444Y-67115796D01*
X64825758Y-67125000D01*
X64258211Y-67125000D01*
X64282663Y-67247929D01*
X64282665Y-67247936D01*
X64346740Y-67402626D01*
X64439761Y-67541843D01*
X64558156Y-67660238D01*
X64697373Y-67753259D01*
X64852063Y-67817334D01*
X64852069Y-67817336D01*
X65016284Y-67850000D01*
X65375000Y-67850000D01*
X65375000Y-67300000D01*
X65625000Y-67300000D01*
X65625000Y-67850000D01*
X65983716Y-67850000D01*
X66147930Y-67817336D01*
X66147936Y-67817334D01*
X66302626Y-67753259D01*
X66441843Y-67660238D01*
X66441845Y-67660237D01*
X66560237Y-67541845D01*
X66560238Y-67541843D01*
X66653259Y-67402626D01*
X66717334Y-67247936D01*
X66717336Y-67247929D01*
X66741788Y-67125000D01*
X66174242Y-67125000D01*
X66179556Y-67115796D01*
X66200000Y-67039496D01*
X66200000Y-66960504D01*
X66179556Y-66884204D01*
X66174242Y-66875000D01*
X66741788Y-66875000D01*
X66741788Y-66874999D01*
X68278211Y-66874999D01*
X68278212Y-66875000D01*
X68845758Y-66875000D01*
X68840444Y-66884204D01*
X68820000Y-66960504D01*
X68820000Y-67039496D01*
X68840444Y-67115796D01*
X68845758Y-67125000D01*
X68278211Y-67125000D01*
X68302663Y-67247929D01*
X68302665Y-67247936D01*
X68366740Y-67402626D01*
X68459761Y-67541843D01*
X68578156Y-67660238D01*
X68717373Y-67753259D01*
X68872063Y-67817334D01*
X68875546Y-67818391D01*
X68875001Y-67820185D01*
X68917271Y-67848403D01*
X68928344Y-67903947D01*
X68896898Y-67951052D01*
X68892761Y-67953626D01*
X68835845Y-67986487D01*
X68731488Y-68090844D01*
X68657699Y-68218650D01*
X68657695Y-68218659D01*
X68619500Y-68361206D01*
X68619500Y-68508793D01*
X68657695Y-68651340D01*
X68657699Y-68651349D01*
X68731488Y-68779155D01*
X68835845Y-68883512D01*
X68963655Y-68957303D01*
X69106206Y-68995499D01*
X69106207Y-68995500D01*
X69106209Y-68995500D01*
X69253793Y-68995500D01*
X69253793Y-68995499D01*
X69396345Y-68957303D01*
X69433361Y-68935932D01*
X70749500Y-68935932D01*
X70749500Y-69064067D01*
X70774497Y-69189739D01*
X70774498Y-69189742D01*
X70774499Y-69189744D01*
X70823535Y-69308127D01*
X70894724Y-69414669D01*
X70985331Y-69505276D01*
X71091873Y-69576465D01*
X71210256Y-69625501D01*
X71210258Y-69625501D01*
X71210260Y-69625502D01*
X71252903Y-69633984D01*
X71335931Y-69650500D01*
X71335933Y-69650500D01*
X71464067Y-69650500D01*
X71464069Y-69650500D01*
X71589744Y-69625501D01*
X71708127Y-69576465D01*
X71814669Y-69505276D01*
X71905276Y-69414669D01*
X71976465Y-69308127D01*
X72025501Y-69189744D01*
X72050500Y-69064069D01*
X72050500Y-68935931D01*
X72025501Y-68810256D01*
X71976465Y-68691873D01*
X71905276Y-68585331D01*
X71814669Y-68494724D01*
X71708127Y-68423535D01*
X71708124Y-68423533D01*
X71708123Y-68423533D01*
X71589742Y-68374498D01*
X71589739Y-68374497D01*
X71499696Y-68356586D01*
X71464069Y-68349500D01*
X71335931Y-68349500D01*
X71304726Y-68355707D01*
X71210260Y-68374497D01*
X71210257Y-68374498D01*
X71091876Y-68423533D01*
X70985331Y-68494723D01*
X70985330Y-68494725D01*
X70894725Y-68585330D01*
X70894723Y-68585331D01*
X70823533Y-68691876D01*
X70774498Y-68810257D01*
X70774497Y-68810260D01*
X70749500Y-68935932D01*
X69433361Y-68935932D01*
X69524155Y-68883512D01*
X69628512Y-68779155D01*
X69702303Y-68651345D01*
X69740499Y-68508793D01*
X69740500Y-68508793D01*
X69740500Y-68361207D01*
X69740499Y-68361206D01*
X69737630Y-68350500D01*
X69702303Y-68218655D01*
X69628512Y-68090845D01*
X69524155Y-67986488D01*
X69524153Y-67986486D01*
X69520308Y-67983536D01*
X69521868Y-67981502D01*
X69492442Y-67943144D01*
X69499842Y-67886992D01*
X69534910Y-67860089D01*
X69545000Y-67850000D01*
X69545000Y-67300000D01*
X69795000Y-67300000D01*
X69795000Y-67850000D01*
X70303716Y-67850000D01*
X70467930Y-67817336D01*
X70467936Y-67817334D01*
X70622626Y-67753259D01*
X70761843Y-67660238D01*
X70761845Y-67660237D01*
X70786150Y-67635932D01*
X79699500Y-67635932D01*
X79699500Y-67764067D01*
X79724497Y-67889739D01*
X79724498Y-67889742D01*
X79772353Y-68005275D01*
X79773535Y-68008127D01*
X79844724Y-68114669D01*
X79935331Y-68205276D01*
X80041873Y-68276465D01*
X80160256Y-68325501D01*
X80160258Y-68325501D01*
X80160260Y-68325502D01*
X80202903Y-68333984D01*
X80285931Y-68350500D01*
X80285933Y-68350500D01*
X80414067Y-68350500D01*
X80414069Y-68350500D01*
X80539744Y-68325501D01*
X80658127Y-68276465D01*
X80764669Y-68205276D01*
X80855276Y-68114669D01*
X80926465Y-68008127D01*
X80975501Y-67889744D01*
X81000500Y-67764069D01*
X81000500Y-67635931D01*
X80975501Y-67510256D01*
X80944714Y-67435932D01*
X83099500Y-67435932D01*
X83099500Y-67564067D01*
X83124497Y-67689739D01*
X83124498Y-67689742D01*
X83155285Y-67764069D01*
X83173535Y-67808127D01*
X83244724Y-67914669D01*
X83335331Y-68005276D01*
X83441873Y-68076465D01*
X83560256Y-68125501D01*
X83560258Y-68125501D01*
X83560260Y-68125502D01*
X83602903Y-68133984D01*
X83685931Y-68150500D01*
X83685933Y-68150500D01*
X83814067Y-68150500D01*
X83814069Y-68150500D01*
X83939744Y-68125501D01*
X84058127Y-68076465D01*
X84164669Y-68005276D01*
X84255276Y-67914669D01*
X84326465Y-67808127D01*
X84375501Y-67689744D01*
X84400500Y-67564069D01*
X84400500Y-67435931D01*
X84375501Y-67310256D01*
X84326465Y-67191873D01*
X84255276Y-67085331D01*
X84164669Y-66994724D01*
X84058127Y-66923535D01*
X84058124Y-66923533D01*
X84058123Y-66923533D01*
X83939742Y-66874498D01*
X83939739Y-66874497D01*
X83849696Y-66856586D01*
X83814069Y-66849500D01*
X83685931Y-66849500D01*
X83654726Y-66855707D01*
X83560260Y-66874497D01*
X83560257Y-66874498D01*
X83441876Y-66923533D01*
X83335331Y-66994723D01*
X83335330Y-66994725D01*
X83244725Y-67085330D01*
X83244723Y-67085331D01*
X83173533Y-67191876D01*
X83124498Y-67310257D01*
X83124497Y-67310260D01*
X83099500Y-67435932D01*
X80944714Y-67435932D01*
X80944714Y-67435931D01*
X80926466Y-67391876D01*
X80926465Y-67391873D01*
X80855276Y-67285331D01*
X80764669Y-67194724D01*
X80760402Y-67191873D01*
X80729473Y-67171207D01*
X80658127Y-67123535D01*
X80658124Y-67123533D01*
X80658123Y-67123533D01*
X80539742Y-67074498D01*
X80539739Y-67074497D01*
X80449696Y-67056586D01*
X80414069Y-67049500D01*
X80285931Y-67049500D01*
X80254726Y-67055707D01*
X80160260Y-67074497D01*
X80160257Y-67074498D01*
X80041876Y-67123533D01*
X79935331Y-67194723D01*
X79935330Y-67194725D01*
X79844725Y-67285330D01*
X79844723Y-67285331D01*
X79773533Y-67391876D01*
X79724498Y-67510257D01*
X79724497Y-67510260D01*
X79699500Y-67635932D01*
X70786150Y-67635932D01*
X70880237Y-67541845D01*
X70880238Y-67541843D01*
X70973259Y-67402626D01*
X71037334Y-67247936D01*
X71037336Y-67247929D01*
X71061788Y-67125000D01*
X70494242Y-67125000D01*
X70499556Y-67115796D01*
X70520000Y-67039496D01*
X70520000Y-66960504D01*
X70499556Y-66884204D01*
X70494242Y-66875000D01*
X71061788Y-66875000D01*
X71061788Y-66874999D01*
X71037336Y-66752070D01*
X71037334Y-66752063D01*
X70973259Y-66597373D01*
X70880238Y-66458156D01*
X70761843Y-66339761D01*
X70718697Y-66310932D01*
X74249500Y-66310932D01*
X74249500Y-66439067D01*
X74274497Y-66564739D01*
X74274498Y-66564742D01*
X74274499Y-66564744D01*
X74323535Y-66683127D01*
X74394724Y-66789669D01*
X74485331Y-66880276D01*
X74591873Y-66951465D01*
X74710256Y-67000501D01*
X74710258Y-67000501D01*
X74710260Y-67000502D01*
X74752903Y-67008984D01*
X74835931Y-67025500D01*
X74835933Y-67025500D01*
X74964067Y-67025500D01*
X74964069Y-67025500D01*
X75089744Y-67000501D01*
X75208127Y-66951465D01*
X75314669Y-66880276D01*
X75405276Y-66789669D01*
X75476465Y-66683127D01*
X75525501Y-66564744D01*
X75550500Y-66439069D01*
X75550500Y-66310931D01*
X75537730Y-66246733D01*
X75535582Y-66235932D01*
X76999500Y-66235932D01*
X76999500Y-66364067D01*
X77024497Y-66489739D01*
X77024498Y-66489742D01*
X77069080Y-66597373D01*
X77073535Y-66608127D01*
X77144724Y-66714669D01*
X77235331Y-66805276D01*
X77341873Y-66876465D01*
X77460256Y-66925501D01*
X77460258Y-66925501D01*
X77460260Y-66925502D01*
X77502903Y-66933984D01*
X77585931Y-66950500D01*
X77585933Y-66950500D01*
X77714067Y-66950500D01*
X77714069Y-66950500D01*
X77839744Y-66925501D01*
X77958127Y-66876465D01*
X78064669Y-66805276D01*
X78155276Y-66714669D01*
X78226465Y-66608127D01*
X78275501Y-66489744D01*
X78300500Y-66364069D01*
X78300500Y-66235931D01*
X78275501Y-66110256D01*
X78226465Y-65991873D01*
X78155276Y-65885331D01*
X78064669Y-65794724D01*
X77958127Y-65723535D01*
X77958124Y-65723533D01*
X77958123Y-65723533D01*
X77839742Y-65674498D01*
X77839739Y-65674497D01*
X77749696Y-65656586D01*
X77714069Y-65649500D01*
X77585931Y-65649500D01*
X77554726Y-65655707D01*
X77460260Y-65674497D01*
X77460257Y-65674498D01*
X77341876Y-65723533D01*
X77235331Y-65794723D01*
X77235330Y-65794725D01*
X77144725Y-65885330D01*
X77144723Y-65885331D01*
X77073533Y-65991876D01*
X77024498Y-66110257D01*
X77024497Y-66110260D01*
X76999500Y-66235932D01*
X75535582Y-66235932D01*
X75525502Y-66185260D01*
X75525501Y-66185257D01*
X75524427Y-66182665D01*
X75476465Y-66066873D01*
X75405276Y-65960331D01*
X75314669Y-65869724D01*
X75208127Y-65798535D01*
X75208124Y-65798533D01*
X75208123Y-65798533D01*
X75089742Y-65749498D01*
X75089739Y-65749497D01*
X74999696Y-65731586D01*
X74964069Y-65724500D01*
X74835931Y-65724500D01*
X74804726Y-65730707D01*
X74710260Y-65749497D01*
X74710257Y-65749498D01*
X74591876Y-65798533D01*
X74485331Y-65869723D01*
X74485330Y-65869725D01*
X74394725Y-65960330D01*
X74394723Y-65960331D01*
X74323533Y-66066876D01*
X74274498Y-66185257D01*
X74274497Y-66185260D01*
X74249500Y-66310932D01*
X70718697Y-66310932D01*
X70622626Y-66246740D01*
X70467936Y-66182665D01*
X70467930Y-66182663D01*
X70303716Y-66150000D01*
X69795000Y-66150000D01*
X69795000Y-66700000D01*
X69545000Y-66700000D01*
X69545000Y-66150000D01*
X69036284Y-66150000D01*
X68872069Y-66182663D01*
X68872063Y-66182665D01*
X68717373Y-66246740D01*
X68578156Y-66339761D01*
X68578155Y-66339763D01*
X68459763Y-66458155D01*
X68459761Y-66458156D01*
X68366740Y-66597373D01*
X68302665Y-66752063D01*
X68302663Y-66752070D01*
X68278211Y-66874999D01*
X66741788Y-66874999D01*
X66717336Y-66752070D01*
X66717334Y-66752063D01*
X66653259Y-66597373D01*
X66560238Y-66458156D01*
X66441843Y-66339761D01*
X66302626Y-66246740D01*
X66147936Y-66182665D01*
X66147930Y-66182663D01*
X65983716Y-66150000D01*
X65625000Y-66150000D01*
X65625000Y-66700000D01*
X65375000Y-66700000D01*
X65375000Y-66150000D01*
X65016284Y-66150000D01*
X64852069Y-66182663D01*
X64852063Y-66182665D01*
X64697373Y-66246740D01*
X64558156Y-66339761D01*
X64558155Y-66339763D01*
X64439763Y-66458155D01*
X64439761Y-66458156D01*
X64346740Y-66597373D01*
X64282665Y-66752063D01*
X64282663Y-66752070D01*
X64258211Y-66874999D01*
X63800500Y-66874999D01*
X63800500Y-63310932D01*
X64849500Y-63310932D01*
X64849500Y-63439067D01*
X64874497Y-63564739D01*
X64874498Y-63564742D01*
X64903736Y-63635330D01*
X64923535Y-63683127D01*
X64994724Y-63789669D01*
X65085331Y-63880276D01*
X65191873Y-63951465D01*
X65310256Y-64000501D01*
X65310258Y-64000501D01*
X65310260Y-64000502D01*
X65352903Y-64008984D01*
X65435931Y-64025500D01*
X65435933Y-64025500D01*
X65564067Y-64025500D01*
X65564069Y-64025500D01*
X65689744Y-64000501D01*
X65808127Y-63951465D01*
X65914669Y-63880276D01*
X66005276Y-63789669D01*
X66076465Y-63683127D01*
X66125501Y-63564744D01*
X66127254Y-63555932D01*
X69049500Y-63555932D01*
X69049500Y-63684067D01*
X69074497Y-63809739D01*
X69074498Y-63809742D01*
X69074499Y-63809744D01*
X69123535Y-63928127D01*
X69194724Y-64034669D01*
X69285331Y-64125276D01*
X69391873Y-64196465D01*
X69510256Y-64245501D01*
X69510258Y-64245501D01*
X69510260Y-64245502D01*
X69552903Y-64253984D01*
X69635931Y-64270500D01*
X69635933Y-64270500D01*
X69764067Y-64270500D01*
X69764069Y-64270500D01*
X69889744Y-64245501D01*
X70008127Y-64196465D01*
X70114669Y-64125276D01*
X70205276Y-64034669D01*
X70237842Y-63985931D01*
X71399500Y-63985931D01*
X71399500Y-64114069D01*
X71406586Y-64149696D01*
X71424497Y-64239739D01*
X71424498Y-64239742D01*
X71437238Y-64270500D01*
X71473535Y-64358127D01*
X71544724Y-64464669D01*
X71635331Y-64555276D01*
X71741873Y-64626465D01*
X71860256Y-64675501D01*
X71860258Y-64675501D01*
X71860260Y-64675502D01*
X71902903Y-64683984D01*
X71985931Y-64700500D01*
X71985933Y-64700500D01*
X72114067Y-64700500D01*
X72114069Y-64700500D01*
X72239744Y-64675501D01*
X72358127Y-64626465D01*
X72464669Y-64555276D01*
X72555276Y-64464669D01*
X72626465Y-64358127D01*
X72675501Y-64239744D01*
X72700500Y-64114069D01*
X72700500Y-63985931D01*
X72675501Y-63860256D01*
X72626465Y-63741873D01*
X72555276Y-63635331D01*
X72464669Y-63544724D01*
X72454396Y-63537860D01*
X72429473Y-63521207D01*
X72358127Y-63473535D01*
X72358124Y-63473533D01*
X72358123Y-63473533D01*
X72239742Y-63424498D01*
X72239739Y-63424497D01*
X72149696Y-63406586D01*
X72114069Y-63399500D01*
X71985931Y-63399500D01*
X71954726Y-63405707D01*
X71860260Y-63424497D01*
X71860257Y-63424498D01*
X71741876Y-63473533D01*
X71635331Y-63544723D01*
X71635330Y-63544725D01*
X71544725Y-63635330D01*
X71544723Y-63635331D01*
X71473533Y-63741876D01*
X71424498Y-63860257D01*
X71424497Y-63860260D01*
X71410998Y-63928127D01*
X71399500Y-63985931D01*
X70237842Y-63985931D01*
X70276465Y-63928127D01*
X70325501Y-63809744D01*
X70350500Y-63684069D01*
X70350500Y-63555931D01*
X70325501Y-63430256D01*
X70276465Y-63311873D01*
X70205276Y-63205331D01*
X70114669Y-63114724D01*
X70008127Y-63043535D01*
X70008124Y-63043533D01*
X70008123Y-63043533D01*
X69889742Y-62994498D01*
X69889739Y-62994497D01*
X69799696Y-62976586D01*
X69764069Y-62969500D01*
X69635931Y-62969500D01*
X69604726Y-62975707D01*
X69510260Y-62994497D01*
X69510257Y-62994498D01*
X69391876Y-63043533D01*
X69285331Y-63114723D01*
X69285330Y-63114725D01*
X69194725Y-63205330D01*
X69194723Y-63205331D01*
X69123533Y-63311876D01*
X69074498Y-63430257D01*
X69074497Y-63430260D01*
X69053095Y-63537859D01*
X69051730Y-63544723D01*
X69049500Y-63555932D01*
X66127254Y-63555932D01*
X66150500Y-63439069D01*
X66150500Y-63310931D01*
X66125501Y-63185256D01*
X66076465Y-63066873D01*
X66005276Y-62960331D01*
X65914669Y-62869724D01*
X65808127Y-62798535D01*
X65808124Y-62798533D01*
X65808123Y-62798533D01*
X65689742Y-62749498D01*
X65689739Y-62749497D01*
X65599696Y-62731586D01*
X65564069Y-62724500D01*
X65435931Y-62724500D01*
X65404726Y-62730707D01*
X65310260Y-62749497D01*
X65310257Y-62749498D01*
X65191876Y-62798533D01*
X65085331Y-62869723D01*
X65085330Y-62869725D01*
X64994725Y-62960330D01*
X64994723Y-62960331D01*
X64923533Y-63066876D01*
X64874498Y-63185257D01*
X64874497Y-63185260D01*
X64849500Y-63310932D01*
X63800500Y-63310932D01*
X63800500Y-61135932D01*
X64849500Y-61135932D01*
X64849500Y-61264067D01*
X64874497Y-61389739D01*
X64874498Y-61389742D01*
X64874499Y-61389744D01*
X64923535Y-61508127D01*
X64994724Y-61614669D01*
X65085331Y-61705276D01*
X65191873Y-61776465D01*
X65310256Y-61825501D01*
X65310258Y-61825501D01*
X65310260Y-61825502D01*
X65352903Y-61833984D01*
X65435931Y-61850500D01*
X65435933Y-61850500D01*
X65564067Y-61850500D01*
X65564069Y-61850500D01*
X65689744Y-61825501D01*
X65808127Y-61776465D01*
X65914669Y-61705276D01*
X66005276Y-61614669D01*
X66076465Y-61508127D01*
X66125501Y-61389744D01*
X66150500Y-61264069D01*
X66150500Y-61135931D01*
X66125501Y-61010256D01*
X66094169Y-60934614D01*
X66083946Y-60909932D01*
X70649500Y-60909932D01*
X70649500Y-61038067D01*
X70674497Y-61163739D01*
X70674498Y-61163742D01*
X70674499Y-61163744D01*
X70723535Y-61282127D01*
X70794724Y-61388669D01*
X70885331Y-61479276D01*
X70991873Y-61550465D01*
X71110256Y-61599501D01*
X71110258Y-61599501D01*
X71110260Y-61599502D01*
X71152903Y-61607984D01*
X71235931Y-61624500D01*
X71235933Y-61624500D01*
X71364067Y-61624500D01*
X71364069Y-61624500D01*
X71489744Y-61599501D01*
X71608127Y-61550465D01*
X71714669Y-61479276D01*
X71805276Y-61388669D01*
X71876465Y-61282127D01*
X71925501Y-61163744D01*
X71950500Y-61038069D01*
X71950500Y-60909931D01*
X71925501Y-60784256D01*
X71876465Y-60665873D01*
X71805276Y-60559331D01*
X71714669Y-60468724D01*
X71608127Y-60397535D01*
X71608124Y-60397533D01*
X71608123Y-60397533D01*
X71489742Y-60348498D01*
X71489739Y-60348497D01*
X71399696Y-60330586D01*
X71364069Y-60323500D01*
X71235931Y-60323500D01*
X71204726Y-60329707D01*
X71110260Y-60348497D01*
X71110257Y-60348498D01*
X70991876Y-60397533D01*
X70885331Y-60468723D01*
X70885330Y-60468725D01*
X70794725Y-60559330D01*
X70794723Y-60559331D01*
X70723533Y-60665876D01*
X70674498Y-60784257D01*
X70674497Y-60784260D01*
X70649500Y-60909932D01*
X66083946Y-60909932D01*
X66076467Y-60891877D01*
X66076466Y-60891875D01*
X66076465Y-60891873D01*
X66005276Y-60785331D01*
X65914669Y-60694724D01*
X65808127Y-60623535D01*
X65808124Y-60623533D01*
X65808123Y-60623533D01*
X65689742Y-60574498D01*
X65689739Y-60574497D01*
X65599696Y-60556586D01*
X65564069Y-60549500D01*
X65435931Y-60549500D01*
X65404726Y-60555707D01*
X65310260Y-60574497D01*
X65310257Y-60574498D01*
X65191876Y-60623533D01*
X65085331Y-60694723D01*
X65085330Y-60694725D01*
X64994725Y-60785330D01*
X64994723Y-60785331D01*
X64923533Y-60891876D01*
X64874498Y-61010257D01*
X64874497Y-61010260D01*
X64849500Y-61135932D01*
X63800500Y-61135932D01*
X63800500Y-59735932D01*
X83349500Y-59735932D01*
X83349500Y-59864067D01*
X83374497Y-59989739D01*
X83374498Y-59989742D01*
X83374499Y-59989744D01*
X83423535Y-60108127D01*
X83494724Y-60214669D01*
X83585331Y-60305276D01*
X83691873Y-60376465D01*
X83810256Y-60425501D01*
X83810258Y-60425501D01*
X83810260Y-60425502D01*
X83852903Y-60433984D01*
X83935931Y-60450500D01*
X83935933Y-60450500D01*
X84064067Y-60450500D01*
X84064069Y-60450500D01*
X84189744Y-60425501D01*
X84308127Y-60376465D01*
X84414669Y-60305276D01*
X84505276Y-60214669D01*
X84576465Y-60108127D01*
X84625501Y-59989744D01*
X84650500Y-59864069D01*
X84650500Y-59735931D01*
X84625501Y-59610256D01*
X84576465Y-59491873D01*
X84505276Y-59385331D01*
X84414669Y-59294724D01*
X84308127Y-59223535D01*
X84308124Y-59223533D01*
X84308123Y-59223533D01*
X84189742Y-59174498D01*
X84189739Y-59174497D01*
X84099696Y-59156586D01*
X84064069Y-59149500D01*
X83935931Y-59149500D01*
X83904726Y-59155707D01*
X83810260Y-59174497D01*
X83810257Y-59174498D01*
X83691876Y-59223533D01*
X83585331Y-59294723D01*
X83585330Y-59294725D01*
X83494725Y-59385330D01*
X83494723Y-59385331D01*
X83423533Y-59491876D01*
X83374498Y-59610257D01*
X83374497Y-59610260D01*
X83349500Y-59735932D01*
X63800500Y-59735932D01*
X63800500Y-58935932D01*
X73549500Y-58935932D01*
X73549500Y-59064067D01*
X73574497Y-59189739D01*
X73574498Y-59189742D01*
X73617983Y-59294725D01*
X73623535Y-59308127D01*
X73694724Y-59414669D01*
X73785331Y-59505276D01*
X73891873Y-59576465D01*
X74010256Y-59625501D01*
X74010258Y-59625501D01*
X74010260Y-59625502D01*
X74052903Y-59633984D01*
X74135931Y-59650500D01*
X74135933Y-59650500D01*
X74264067Y-59650500D01*
X74264069Y-59650500D01*
X74389744Y-59625501D01*
X74508127Y-59576465D01*
X74614669Y-59505276D01*
X74705276Y-59414669D01*
X74776465Y-59308127D01*
X74825501Y-59189744D01*
X74850500Y-59064069D01*
X74850500Y-58935931D01*
X74836178Y-58863929D01*
X74825502Y-58810260D01*
X74825501Y-58810257D01*
X74776466Y-58691876D01*
X74776465Y-58691873D01*
X74705276Y-58585331D01*
X74614669Y-58494724D01*
X74508127Y-58423535D01*
X74508124Y-58423533D01*
X74508123Y-58423533D01*
X74389742Y-58374498D01*
X74389739Y-58374497D01*
X74299696Y-58356586D01*
X74264069Y-58349500D01*
X74135931Y-58349500D01*
X74104726Y-58355707D01*
X74010260Y-58374497D01*
X74010257Y-58374498D01*
X73891876Y-58423533D01*
X73785331Y-58494723D01*
X73785330Y-58494725D01*
X73694725Y-58585330D01*
X73694723Y-58585331D01*
X73623533Y-58691876D01*
X73574498Y-58810257D01*
X73574497Y-58810260D01*
X73549500Y-58935932D01*
X63800500Y-58935932D01*
X63800500Y-58185932D01*
X67439500Y-58185932D01*
X67439500Y-58314067D01*
X67464497Y-58439739D01*
X67464498Y-58439742D01*
X67496446Y-58516872D01*
X67513535Y-58558127D01*
X67561207Y-58629473D01*
X67575256Y-58650500D01*
X67584724Y-58664669D01*
X67675331Y-58755276D01*
X67781873Y-58826465D01*
X67900256Y-58875501D01*
X67900258Y-58875501D01*
X67900260Y-58875502D01*
X67942903Y-58883984D01*
X68025931Y-58900500D01*
X68025933Y-58900500D01*
X68154067Y-58900500D01*
X68154069Y-58900500D01*
X68279744Y-58875501D01*
X68398127Y-58826465D01*
X68504669Y-58755276D01*
X68595276Y-58664669D01*
X68666465Y-58558127D01*
X68715501Y-58439744D01*
X68740500Y-58314069D01*
X68740500Y-58185931D01*
X68728168Y-58123939D01*
X68715502Y-58060260D01*
X68715501Y-58060257D01*
X68674359Y-57960932D01*
X68666465Y-57941873D01*
X68595276Y-57835331D01*
X68504669Y-57744724D01*
X68398127Y-57673535D01*
X68398124Y-57673533D01*
X68398123Y-57673533D01*
X68279742Y-57624498D01*
X68279739Y-57624497D01*
X68189696Y-57606586D01*
X68154069Y-57599500D01*
X68025931Y-57599500D01*
X67994726Y-57605707D01*
X67900260Y-57624497D01*
X67900257Y-57624498D01*
X67781876Y-57673533D01*
X67675331Y-57744723D01*
X67675330Y-57744725D01*
X67584725Y-57835330D01*
X67584723Y-57835331D01*
X67513533Y-57941876D01*
X67464498Y-58060257D01*
X67464497Y-58060260D01*
X67439500Y-58185932D01*
X63800500Y-58185932D01*
X63800500Y-56935932D01*
X69349500Y-56935932D01*
X69349500Y-57064067D01*
X69374497Y-57189739D01*
X69374498Y-57189742D01*
X69374499Y-57189744D01*
X69423535Y-57308127D01*
X69451091Y-57349367D01*
X69494723Y-57414668D01*
X69527729Y-57447674D01*
X69549403Y-57500000D01*
X69527729Y-57552326D01*
X69494725Y-57585330D01*
X69494723Y-57585331D01*
X69423533Y-57691876D01*
X69374498Y-57810257D01*
X69374497Y-57810260D01*
X69349500Y-57935932D01*
X69349500Y-58064067D01*
X69374497Y-58189739D01*
X69374498Y-58189742D01*
X69384853Y-58214742D01*
X69423535Y-58308127D01*
X69494724Y-58414669D01*
X69585331Y-58505276D01*
X69691873Y-58576465D01*
X69810256Y-58625501D01*
X69810258Y-58625501D01*
X69810260Y-58625502D01*
X69852903Y-58633984D01*
X69935931Y-58650500D01*
X69935933Y-58650500D01*
X70064067Y-58650500D01*
X70064069Y-58650500D01*
X70189744Y-58625501D01*
X70308127Y-58576465D01*
X70414669Y-58505276D01*
X70505276Y-58414669D01*
X70576465Y-58308127D01*
X70625501Y-58189744D01*
X70650500Y-58064069D01*
X70650500Y-57935931D01*
X70625501Y-57810256D01*
X70576465Y-57691873D01*
X70505276Y-57585331D01*
X70472271Y-57552326D01*
X70450597Y-57500000D01*
X70472271Y-57447674D01*
X70505275Y-57414670D01*
X70505276Y-57414669D01*
X70576465Y-57308127D01*
X70625501Y-57189744D01*
X70650500Y-57064069D01*
X70650500Y-56935932D01*
X71549500Y-56935932D01*
X71549500Y-57064067D01*
X71574497Y-57189739D01*
X71574498Y-57189742D01*
X71574499Y-57189744D01*
X71623535Y-57308127D01*
X71694724Y-57414669D01*
X71785331Y-57505276D01*
X71891873Y-57576465D01*
X72010256Y-57625501D01*
X72010258Y-57625501D01*
X72010260Y-57625502D01*
X72052522Y-57633908D01*
X72135931Y-57650500D01*
X72135938Y-57650500D01*
X72137267Y-57650631D01*
X72137667Y-57650845D01*
X72139497Y-57651209D01*
X72139386Y-57651763D01*
X72187218Y-57677328D01*
X72203660Y-57731526D01*
X72198383Y-57752593D01*
X72174499Y-57810253D01*
X72174497Y-57810260D01*
X72149500Y-57935932D01*
X72149500Y-58064067D01*
X72174497Y-58189739D01*
X72174498Y-58189742D01*
X72184853Y-58214742D01*
X72223535Y-58308127D01*
X72294724Y-58414669D01*
X72385331Y-58505276D01*
X72491873Y-58576465D01*
X72610256Y-58625501D01*
X72610258Y-58625501D01*
X72610260Y-58625502D01*
X72652903Y-58633984D01*
X72735931Y-58650500D01*
X72735933Y-58650500D01*
X72864067Y-58650500D01*
X72864069Y-58650500D01*
X72989744Y-58625501D01*
X73108127Y-58576465D01*
X73214669Y-58505276D01*
X73305276Y-58414669D01*
X73376465Y-58308127D01*
X73425501Y-58189744D01*
X73450500Y-58064069D01*
X73450500Y-57960932D01*
X80499500Y-57960932D01*
X80499500Y-58089067D01*
X80524497Y-58214739D01*
X80524498Y-58214742D01*
X80573535Y-58333127D01*
X80607452Y-58383888D01*
X80618501Y-58439437D01*
X80607452Y-58466112D01*
X80573535Y-58516872D01*
X80524498Y-58635257D01*
X80524497Y-58635260D01*
X80499500Y-58760932D01*
X80499500Y-58889067D01*
X80524497Y-59014739D01*
X80524498Y-59014742D01*
X80524499Y-59014744D01*
X80573535Y-59133127D01*
X80601178Y-59174497D01*
X80633943Y-59223535D01*
X80644724Y-59239669D01*
X80735331Y-59330276D01*
X80841873Y-59401465D01*
X80960256Y-59450501D01*
X80960258Y-59450501D01*
X80960260Y-59450502D01*
X81002903Y-59458984D01*
X81085931Y-59475500D01*
X81085933Y-59475500D01*
X81214067Y-59475500D01*
X81214069Y-59475500D01*
X81339744Y-59450501D01*
X81458127Y-59401465D01*
X81564669Y-59330276D01*
X81655276Y-59239669D01*
X81726465Y-59133127D01*
X81775501Y-59014744D01*
X81800500Y-58889069D01*
X81800500Y-58760931D01*
X81775501Y-58635256D01*
X81726465Y-58516873D01*
X81692546Y-58466111D01*
X81681498Y-58410564D01*
X81692547Y-58383888D01*
X81698821Y-58374499D01*
X81726465Y-58333127D01*
X81775501Y-58214744D01*
X81800500Y-58089069D01*
X81800500Y-57960931D01*
X81775501Y-57835256D01*
X81726465Y-57716873D01*
X81655276Y-57610331D01*
X81564669Y-57519724D01*
X81458127Y-57448535D01*
X81458124Y-57448533D01*
X81458123Y-57448533D01*
X81339742Y-57399498D01*
X81339739Y-57399497D01*
X81249696Y-57381586D01*
X81214069Y-57374500D01*
X81085931Y-57374500D01*
X81054726Y-57380707D01*
X80960260Y-57399497D01*
X80960257Y-57399498D01*
X80841876Y-57448533D01*
X80735331Y-57519723D01*
X80735330Y-57519725D01*
X80644725Y-57610330D01*
X80644723Y-57610331D01*
X80573533Y-57716876D01*
X80524498Y-57835257D01*
X80524497Y-57835260D01*
X80499500Y-57960932D01*
X73450500Y-57960932D01*
X73450500Y-57935931D01*
X73425501Y-57810256D01*
X73376465Y-57691873D01*
X73305276Y-57585331D01*
X73214669Y-57494724D01*
X73108127Y-57423535D01*
X73108124Y-57423533D01*
X73108123Y-57423533D01*
X72989742Y-57374498D01*
X72989739Y-57374497D01*
X72884824Y-57353628D01*
X72864069Y-57349500D01*
X72864068Y-57349500D01*
X72862718Y-57349367D01*
X72862314Y-57349151D01*
X72860503Y-57348791D01*
X72860612Y-57348241D01*
X72812773Y-57322660D01*
X72796340Y-57268459D01*
X72801614Y-57247410D01*
X72825501Y-57189744D01*
X72850500Y-57064069D01*
X72850500Y-56935931D01*
X72825501Y-56810256D01*
X72783262Y-56708282D01*
X72783262Y-56651645D01*
X72823309Y-56611597D01*
X72908127Y-56576465D01*
X73014669Y-56505276D01*
X73105276Y-56414669D01*
X73176465Y-56308127D01*
X73225501Y-56189744D01*
X73250500Y-56064069D01*
X73250500Y-55935931D01*
X73225501Y-55810256D01*
X73176465Y-55691873D01*
X73142546Y-55641111D01*
X73131498Y-55585564D01*
X73142547Y-55558888D01*
X73176465Y-55508127D01*
X73225501Y-55389744D01*
X73250500Y-55264069D01*
X73250500Y-55135931D01*
X73225501Y-55010256D01*
X73176465Y-54891873D01*
X73105276Y-54785331D01*
X73014669Y-54694724D01*
X73013057Y-54693647D01*
X72979473Y-54671207D01*
X72908127Y-54623535D01*
X72908124Y-54623533D01*
X72908123Y-54623533D01*
X72789742Y-54574498D01*
X72789739Y-54574497D01*
X72699696Y-54556586D01*
X72664069Y-54549500D01*
X72535931Y-54549500D01*
X72504726Y-54555707D01*
X72410260Y-54574497D01*
X72410257Y-54574498D01*
X72291876Y-54623533D01*
X72185331Y-54694723D01*
X72185330Y-54694725D01*
X72094725Y-54785330D01*
X72094723Y-54785331D01*
X72023533Y-54891876D01*
X71974498Y-55010257D01*
X71974497Y-55010260D01*
X71949500Y-55135932D01*
X71949500Y-55264067D01*
X71974497Y-55389739D01*
X71974498Y-55389742D01*
X72023535Y-55508127D01*
X72057452Y-55558888D01*
X72068501Y-55614437D01*
X72057452Y-55641112D01*
X72023535Y-55691872D01*
X71974498Y-55810257D01*
X71974497Y-55810260D01*
X71949500Y-55935932D01*
X71949500Y-56064067D01*
X71974497Y-56189739D01*
X71974499Y-56189746D01*
X72016737Y-56291717D01*
X72016737Y-56348354D01*
X71976689Y-56388402D01*
X71891876Y-56423533D01*
X71785331Y-56494723D01*
X71785330Y-56494725D01*
X71694725Y-56585330D01*
X71694723Y-56585331D01*
X71623533Y-56691876D01*
X71574498Y-56810257D01*
X71574497Y-56810260D01*
X71549500Y-56935932D01*
X70650500Y-56935932D01*
X70650500Y-56935931D01*
X70625501Y-56810256D01*
X70576465Y-56691873D01*
X70505276Y-56585331D01*
X70414669Y-56494724D01*
X70308127Y-56423535D01*
X70308124Y-56423533D01*
X70308123Y-56423533D01*
X70189742Y-56374498D01*
X70189739Y-56374497D01*
X70099696Y-56356586D01*
X70064069Y-56349500D01*
X69935931Y-56349500D01*
X69904726Y-56355707D01*
X69810260Y-56374497D01*
X69810257Y-56374498D01*
X69691876Y-56423533D01*
X69585331Y-56494723D01*
X69585330Y-56494725D01*
X69494725Y-56585330D01*
X69494723Y-56585331D01*
X69423533Y-56691876D01*
X69374498Y-56810257D01*
X69374497Y-56810260D01*
X69349500Y-56935932D01*
X63800500Y-56935932D01*
X63800500Y-55002083D01*
X63800616Y-54997934D01*
X63810214Y-54827028D01*
X63817241Y-54701885D01*
X63818171Y-54693647D01*
X63867487Y-54403392D01*
X63869326Y-54395332D01*
X63950841Y-54112389D01*
X63953571Y-54104586D01*
X64066246Y-53832564D01*
X64069840Y-53825102D01*
X64212268Y-53567397D01*
X64216665Y-53560399D01*
X64387044Y-53320273D01*
X64392202Y-53313804D01*
X64588408Y-53094249D01*
X64594249Y-53088408D01*
X64813804Y-52892202D01*
X64820273Y-52887044D01*
X65060399Y-52716665D01*
X65067397Y-52712268D01*
X65325102Y-52569840D01*
X65332564Y-52566246D01*
X65604586Y-52453571D01*
X65612389Y-52450841D01*
X65895332Y-52369326D01*
X65903392Y-52367487D01*
X66193655Y-52318170D01*
X66201885Y-52317241D01*
X66497934Y-52300615D01*
X66502083Y-52300500D01*
X66602354Y-52300500D01*
X66683224Y-52287690D01*
X66804534Y-52268477D01*
X66804541Y-52268474D01*
X66804544Y-52268474D01*
X66999213Y-52205222D01*
X66999213Y-52205221D01*
X66999219Y-52205220D01*
X67181610Y-52112287D01*
X67316708Y-52014132D01*
X67360204Y-52000000D01*
X84639796Y-52000000D01*
X84683292Y-52014133D01*
G37*
G04 #@! TD.AperFunction*
M02*
