%TF.GenerationSoftware,KiCad,Pcbnew,9.0.3*%
%TF.CreationDate,2025-07-16T17:22:25+12:00*%
%TF.ProjectId,TempSense,54656d70-5365-46e7-9365-2e6b69636164,rev?*%
%TF.SameCoordinates,Original*%
%TF.FileFunction,Drillmap*%
%TF.FilePolarity,Positive*%
%FSLAX45Y45*%
G04 Gerber Fmt 4.5, Leading zero omitted, Abs format (unit mm)*
G04 Created by KiCad (PCBNEW 9.0.3) date 2025-07-16 17:22:25*
%MOMM*%
%LPD*%
G01*
G04 APERTURE LIST*
%ADD10C,0.050000*%
%ADD11C,0.200000*%
%ADD12C,0.100000*%
G04 APERTURE END LIST*
D10*
X7255000Y-9140000D02*
X7255000Y-9500000D01*
X7255000Y-9140000D02*
G75*
G02*
X7295000Y-9100000I40000J0D01*
G01*
X7255000Y-9500000D02*
G75*
G02*
X7175000Y-9500000I-40000J0D01*
G01*
X7295000Y-9020000D02*
X7445000Y-9020000D01*
X7175000Y-9140000D02*
G75*
G02*
X7295000Y-9020000I120000J0D01*
G01*
X7175000Y-9500000D02*
X7175000Y-9140000D01*
X7445000Y-9100000D02*
X7295000Y-9100000D01*
X7445000Y-9020000D02*
G75*
G02*
X7445000Y-9100000I0J-40000D01*
G01*
X7945000Y-9140000D02*
X7945000Y-9500000D01*
X7905000Y-9100000D02*
G75*
G02*
X7945000Y-9140000I0J-40000D01*
G01*
X8025000Y-9500000D02*
G75*
G02*
X7945000Y-9500000I-40000J0D01*
G01*
X8025000Y-9500000D02*
X8025000Y-9140000D01*
X7905000Y-9020000D02*
X7755000Y-9020000D01*
X7755000Y-9100000D02*
X7905000Y-9100000D01*
X7755000Y-9100000D02*
G75*
G02*
X7755000Y-9020000I0J40000D01*
G01*
X7905000Y-9020000D02*
G75*
G02*
X8025000Y-9140000I0J-120000D01*
G01*
X7200000Y-9650000D02*
G75*
G02*
X7100000Y-9550000I0J100000D01*
G01*
X8850000Y-5500000D02*
X8850000Y-8750000D01*
X8100000Y-9550000D02*
X8100000Y-9100000D01*
X8100000Y-9550000D02*
G75*
G02*
X8000000Y-9650000I-100000J0D01*
G01*
X8550000Y-5200000D02*
G75*
G02*
X8850000Y-5500000I0J-300000D01*
G01*
X8450000Y-4730000D02*
X8450000Y-5100000D01*
X6750000Y-4730000D02*
G75*
G02*
X6830000Y-4650000I80000J0D01*
G01*
X8550000Y-5200000D02*
G75*
G02*
X8450000Y-5100000I0J100000D01*
G01*
X6350000Y-8750000D02*
X6350000Y-5500000D01*
X6750000Y-4730000D02*
X6750000Y-5100000D01*
X8850000Y-8750000D02*
G75*
G02*
X8600000Y-9000000I-250000J0D01*
G01*
X6600000Y-9000000D02*
G75*
G02*
X6350000Y-8750000I0J250000D01*
G01*
X8370000Y-4650000D02*
X6830000Y-4650000D01*
X8600000Y-9000000D02*
X8200000Y-9000000D01*
X7000000Y-9000000D02*
G75*
G02*
X7100000Y-9100000I0J-100000D01*
G01*
X7000000Y-9000000D02*
X6600000Y-9000000D01*
X6350000Y-5500000D02*
G75*
G02*
X6650000Y-5200000I300000J0D01*
G01*
X8000000Y-9650000D02*
X7200000Y-9650000D01*
X6750000Y-5100000D02*
G75*
G02*
X6650000Y-5200000I-100000J0D01*
G01*
X8100000Y-9100000D02*
G75*
G02*
X8200000Y-9000000I100000J0D01*
G01*
X8370000Y-4650000D02*
G75*
G02*
X8450000Y-4730000I0J-80000D01*
G01*
X7100000Y-9550000D02*
X7100000Y-9100000D01*
D11*
D12*
X6888000Y-6813500D02*
X6948000Y-6873500D01*
X6948000Y-6813500D02*
X6888000Y-6873500D01*
X6888000Y-7391500D02*
X6948000Y-7451500D01*
X6948000Y-7391500D02*
X6888000Y-7451500D01*
X6582500Y-8200000D02*
G75*
G02*
X6497500Y-8200000I-42500J0D01*
G01*
X6497500Y-8200000D02*
G75*
G02*
X6582500Y-8200000I42500J0D01*
G01*
X6582550Y-8500000D02*
G75*
G02*
X6497550Y-8500000I-42500J0D01*
G01*
X6497550Y-8500000D02*
G75*
G02*
X6582550Y-8500000I42500J0D01*
G01*
D11*
X6608277Y-9963984D02*
X6608277Y-9763984D01*
X6608277Y-9763984D02*
X6655896Y-9763984D01*
X6655896Y-9763984D02*
X6684467Y-9773508D01*
X6684467Y-9773508D02*
X6703515Y-9792555D01*
X6703515Y-9792555D02*
X6713039Y-9811603D01*
X6713039Y-9811603D02*
X6722562Y-9849698D01*
X6722562Y-9849698D02*
X6722562Y-9878270D01*
X6722562Y-9878270D02*
X6713039Y-9916365D01*
X6713039Y-9916365D02*
X6703515Y-9935412D01*
X6703515Y-9935412D02*
X6684467Y-9954460D01*
X6684467Y-9954460D02*
X6655896Y-9963984D01*
X6655896Y-9963984D02*
X6608277Y-9963984D01*
X6808277Y-9963984D02*
X6808277Y-9830650D01*
X6808277Y-9868746D02*
X6817801Y-9849698D01*
X6817801Y-9849698D02*
X6827324Y-9840174D01*
X6827324Y-9840174D02*
X6846372Y-9830650D01*
X6846372Y-9830650D02*
X6865420Y-9830650D01*
X6932086Y-9963984D02*
X6932086Y-9830650D01*
X6932086Y-9763984D02*
X6922562Y-9773508D01*
X6922562Y-9773508D02*
X6932086Y-9783031D01*
X6932086Y-9783031D02*
X6941610Y-9773508D01*
X6941610Y-9773508D02*
X6932086Y-9763984D01*
X6932086Y-9763984D02*
X6932086Y-9783031D01*
X7055896Y-9963984D02*
X7036848Y-9954460D01*
X7036848Y-9954460D02*
X7027324Y-9935412D01*
X7027324Y-9935412D02*
X7027324Y-9763984D01*
X7160658Y-9963984D02*
X7141610Y-9954460D01*
X7141610Y-9954460D02*
X7132086Y-9935412D01*
X7132086Y-9935412D02*
X7132086Y-9763984D01*
X7389229Y-9963984D02*
X7389229Y-9763984D01*
X7389229Y-9763984D02*
X7455896Y-9906841D01*
X7455896Y-9906841D02*
X7522562Y-9763984D01*
X7522562Y-9763984D02*
X7522562Y-9963984D01*
X7703515Y-9963984D02*
X7703515Y-9859222D01*
X7703515Y-9859222D02*
X7693991Y-9840174D01*
X7693991Y-9840174D02*
X7674943Y-9830650D01*
X7674943Y-9830650D02*
X7636848Y-9830650D01*
X7636848Y-9830650D02*
X7617801Y-9840174D01*
X7703515Y-9954460D02*
X7684467Y-9963984D01*
X7684467Y-9963984D02*
X7636848Y-9963984D01*
X7636848Y-9963984D02*
X7617801Y-9954460D01*
X7617801Y-9954460D02*
X7608277Y-9935412D01*
X7608277Y-9935412D02*
X7608277Y-9916365D01*
X7608277Y-9916365D02*
X7617801Y-9897317D01*
X7617801Y-9897317D02*
X7636848Y-9887793D01*
X7636848Y-9887793D02*
X7684467Y-9887793D01*
X7684467Y-9887793D02*
X7703515Y-9878270D01*
X7798753Y-9830650D02*
X7798753Y-10030650D01*
X7798753Y-9840174D02*
X7817801Y-9830650D01*
X7817801Y-9830650D02*
X7855896Y-9830650D01*
X7855896Y-9830650D02*
X7874943Y-9840174D01*
X7874943Y-9840174D02*
X7884467Y-9849698D01*
X7884467Y-9849698D02*
X7893991Y-9868746D01*
X7893991Y-9868746D02*
X7893991Y-9925889D01*
X7893991Y-9925889D02*
X7884467Y-9944936D01*
X7884467Y-9944936D02*
X7874943Y-9954460D01*
X7874943Y-9954460D02*
X7855896Y-9963984D01*
X7855896Y-9963984D02*
X7817801Y-9963984D01*
X7817801Y-9963984D02*
X7798753Y-9954460D01*
X7979705Y-9944936D02*
X7989229Y-9954460D01*
X7989229Y-9954460D02*
X7979705Y-9963984D01*
X7979705Y-9963984D02*
X7970182Y-9954460D01*
X7970182Y-9954460D02*
X7979705Y-9944936D01*
X7979705Y-9944936D02*
X7979705Y-9963984D01*
X7979705Y-9840174D02*
X7989229Y-9849698D01*
X7989229Y-9849698D02*
X7979705Y-9859222D01*
X7979705Y-9859222D02*
X7970182Y-9849698D01*
X7970182Y-9849698D02*
X7979705Y-9840174D01*
X7979705Y-9840174D02*
X7979705Y-9859222D01*
D12*
X6287500Y-10262500D02*
X6347500Y-10322500D01*
X6347500Y-10262500D02*
X6287500Y-10322500D01*
D11*
X6646372Y-10183984D02*
X6665420Y-10183984D01*
X6665420Y-10183984D02*
X6684467Y-10193508D01*
X6684467Y-10193508D02*
X6693991Y-10203031D01*
X6693991Y-10203031D02*
X6703515Y-10222079D01*
X6703515Y-10222079D02*
X6713039Y-10260174D01*
X6713039Y-10260174D02*
X6713039Y-10307793D01*
X6713039Y-10307793D02*
X6703515Y-10345889D01*
X6703515Y-10345889D02*
X6693991Y-10364936D01*
X6693991Y-10364936D02*
X6684467Y-10374460D01*
X6684467Y-10374460D02*
X6665420Y-10383984D01*
X6665420Y-10383984D02*
X6646372Y-10383984D01*
X6646372Y-10383984D02*
X6627324Y-10374460D01*
X6627324Y-10374460D02*
X6617801Y-10364936D01*
X6617801Y-10364936D02*
X6608277Y-10345889D01*
X6608277Y-10345889D02*
X6598753Y-10307793D01*
X6598753Y-10307793D02*
X6598753Y-10260174D01*
X6598753Y-10260174D02*
X6608277Y-10222079D01*
X6608277Y-10222079D02*
X6617801Y-10203031D01*
X6617801Y-10203031D02*
X6627324Y-10193508D01*
X6627324Y-10193508D02*
X6646372Y-10183984D01*
X6798753Y-10364936D02*
X6808277Y-10374460D01*
X6808277Y-10374460D02*
X6798753Y-10383984D01*
X6798753Y-10383984D02*
X6789229Y-10374460D01*
X6789229Y-10374460D02*
X6798753Y-10364936D01*
X6798753Y-10364936D02*
X6798753Y-10383984D01*
X6979705Y-10183984D02*
X6941610Y-10183984D01*
X6941610Y-10183984D02*
X6922562Y-10193508D01*
X6922562Y-10193508D02*
X6913039Y-10203031D01*
X6913039Y-10203031D02*
X6893991Y-10231603D01*
X6893991Y-10231603D02*
X6884467Y-10269698D01*
X6884467Y-10269698D02*
X6884467Y-10345889D01*
X6884467Y-10345889D02*
X6893991Y-10364936D01*
X6893991Y-10364936D02*
X6903515Y-10374460D01*
X6903515Y-10374460D02*
X6922562Y-10383984D01*
X6922562Y-10383984D02*
X6960658Y-10383984D01*
X6960658Y-10383984D02*
X6979705Y-10374460D01*
X6979705Y-10374460D02*
X6989229Y-10364936D01*
X6989229Y-10364936D02*
X6998753Y-10345889D01*
X6998753Y-10345889D02*
X6998753Y-10298270D01*
X6998753Y-10298270D02*
X6989229Y-10279222D01*
X6989229Y-10279222D02*
X6979705Y-10269698D01*
X6979705Y-10269698D02*
X6960658Y-10260174D01*
X6960658Y-10260174D02*
X6922562Y-10260174D01*
X6922562Y-10260174D02*
X6903515Y-10269698D01*
X6903515Y-10269698D02*
X6893991Y-10279222D01*
X6893991Y-10279222D02*
X6884467Y-10298270D01*
X7122562Y-10183984D02*
X7141610Y-10183984D01*
X7141610Y-10183984D02*
X7160658Y-10193508D01*
X7160658Y-10193508D02*
X7170182Y-10203031D01*
X7170182Y-10203031D02*
X7179705Y-10222079D01*
X7179705Y-10222079D02*
X7189229Y-10260174D01*
X7189229Y-10260174D02*
X7189229Y-10307793D01*
X7189229Y-10307793D02*
X7179705Y-10345889D01*
X7179705Y-10345889D02*
X7170182Y-10364936D01*
X7170182Y-10364936D02*
X7160658Y-10374460D01*
X7160658Y-10374460D02*
X7141610Y-10383984D01*
X7141610Y-10383984D02*
X7122562Y-10383984D01*
X7122562Y-10383984D02*
X7103515Y-10374460D01*
X7103515Y-10374460D02*
X7093991Y-10364936D01*
X7093991Y-10364936D02*
X7084467Y-10345889D01*
X7084467Y-10345889D02*
X7074943Y-10307793D01*
X7074943Y-10307793D02*
X7074943Y-10260174D01*
X7074943Y-10260174D02*
X7084467Y-10222079D01*
X7084467Y-10222079D02*
X7093991Y-10203031D01*
X7093991Y-10203031D02*
X7103515Y-10193508D01*
X7103515Y-10193508D02*
X7122562Y-10183984D01*
X7313039Y-10183984D02*
X7332086Y-10183984D01*
X7332086Y-10183984D02*
X7351134Y-10193508D01*
X7351134Y-10193508D02*
X7360658Y-10203031D01*
X7360658Y-10203031D02*
X7370182Y-10222079D01*
X7370182Y-10222079D02*
X7379705Y-10260174D01*
X7379705Y-10260174D02*
X7379705Y-10307793D01*
X7379705Y-10307793D02*
X7370182Y-10345889D01*
X7370182Y-10345889D02*
X7360658Y-10364936D01*
X7360658Y-10364936D02*
X7351134Y-10374460D01*
X7351134Y-10374460D02*
X7332086Y-10383984D01*
X7332086Y-10383984D02*
X7313039Y-10383984D01*
X7313039Y-10383984D02*
X7293991Y-10374460D01*
X7293991Y-10374460D02*
X7284467Y-10364936D01*
X7284467Y-10364936D02*
X7274943Y-10345889D01*
X7274943Y-10345889D02*
X7265420Y-10307793D01*
X7265420Y-10307793D02*
X7265420Y-10260174D01*
X7265420Y-10260174D02*
X7274943Y-10222079D01*
X7274943Y-10222079D02*
X7284467Y-10203031D01*
X7284467Y-10203031D02*
X7293991Y-10193508D01*
X7293991Y-10193508D02*
X7313039Y-10183984D01*
X7465420Y-10383984D02*
X7465420Y-10250650D01*
X7465420Y-10269698D02*
X7474943Y-10260174D01*
X7474943Y-10260174D02*
X7493991Y-10250650D01*
X7493991Y-10250650D02*
X7522563Y-10250650D01*
X7522563Y-10250650D02*
X7541610Y-10260174D01*
X7541610Y-10260174D02*
X7551134Y-10279222D01*
X7551134Y-10279222D02*
X7551134Y-10383984D01*
X7551134Y-10279222D02*
X7560658Y-10260174D01*
X7560658Y-10260174D02*
X7579705Y-10250650D01*
X7579705Y-10250650D02*
X7608277Y-10250650D01*
X7608277Y-10250650D02*
X7627324Y-10260174D01*
X7627324Y-10260174D02*
X7636848Y-10279222D01*
X7636848Y-10279222D02*
X7636848Y-10383984D01*
X7732086Y-10383984D02*
X7732086Y-10250650D01*
X7732086Y-10269698D02*
X7741610Y-10260174D01*
X7741610Y-10260174D02*
X7760658Y-10250650D01*
X7760658Y-10250650D02*
X7789229Y-10250650D01*
X7789229Y-10250650D02*
X7808277Y-10260174D01*
X7808277Y-10260174D02*
X7817801Y-10279222D01*
X7817801Y-10279222D02*
X7817801Y-10383984D01*
X7817801Y-10279222D02*
X7827324Y-10260174D01*
X7827324Y-10260174D02*
X7846372Y-10250650D01*
X7846372Y-10250650D02*
X7874943Y-10250650D01*
X7874943Y-10250650D02*
X7893991Y-10260174D01*
X7893991Y-10260174D02*
X7903515Y-10279222D01*
X7903515Y-10279222D02*
X7903515Y-10383984D01*
X8293991Y-10174460D02*
X8122563Y-10431603D01*
X8551134Y-10183984D02*
X8570182Y-10183984D01*
X8570182Y-10183984D02*
X8589229Y-10193508D01*
X8589229Y-10193508D02*
X8598753Y-10203031D01*
X8598753Y-10203031D02*
X8608277Y-10222079D01*
X8608277Y-10222079D02*
X8617801Y-10260174D01*
X8617801Y-10260174D02*
X8617801Y-10307793D01*
X8617801Y-10307793D02*
X8608277Y-10345889D01*
X8608277Y-10345889D02*
X8598753Y-10364936D01*
X8598753Y-10364936D02*
X8589229Y-10374460D01*
X8589229Y-10374460D02*
X8570182Y-10383984D01*
X8570182Y-10383984D02*
X8551134Y-10383984D01*
X8551134Y-10383984D02*
X8532087Y-10374460D01*
X8532087Y-10374460D02*
X8522563Y-10364936D01*
X8522563Y-10364936D02*
X8513039Y-10345889D01*
X8513039Y-10345889D02*
X8503515Y-10307793D01*
X8503515Y-10307793D02*
X8503515Y-10260174D01*
X8503515Y-10260174D02*
X8513039Y-10222079D01*
X8513039Y-10222079D02*
X8522563Y-10203031D01*
X8522563Y-10203031D02*
X8532087Y-10193508D01*
X8532087Y-10193508D02*
X8551134Y-10183984D01*
X8703515Y-10364936D02*
X8713039Y-10374460D01*
X8713039Y-10374460D02*
X8703515Y-10383984D01*
X8703515Y-10383984D02*
X8693991Y-10374460D01*
X8693991Y-10374460D02*
X8703515Y-10364936D01*
X8703515Y-10364936D02*
X8703515Y-10383984D01*
X8836848Y-10183984D02*
X8855896Y-10183984D01*
X8855896Y-10183984D02*
X8874944Y-10193508D01*
X8874944Y-10193508D02*
X8884468Y-10203031D01*
X8884468Y-10203031D02*
X8893991Y-10222079D01*
X8893991Y-10222079D02*
X8903515Y-10260174D01*
X8903515Y-10260174D02*
X8903515Y-10307793D01*
X8903515Y-10307793D02*
X8893991Y-10345889D01*
X8893991Y-10345889D02*
X8884468Y-10364936D01*
X8884468Y-10364936D02*
X8874944Y-10374460D01*
X8874944Y-10374460D02*
X8855896Y-10383984D01*
X8855896Y-10383984D02*
X8836848Y-10383984D01*
X8836848Y-10383984D02*
X8817801Y-10374460D01*
X8817801Y-10374460D02*
X8808277Y-10364936D01*
X8808277Y-10364936D02*
X8798753Y-10345889D01*
X8798753Y-10345889D02*
X8789229Y-10307793D01*
X8789229Y-10307793D02*
X8789229Y-10260174D01*
X8789229Y-10260174D02*
X8798753Y-10222079D01*
X8798753Y-10222079D02*
X8808277Y-10203031D01*
X8808277Y-10203031D02*
X8817801Y-10193508D01*
X8817801Y-10193508D02*
X8836848Y-10183984D01*
X8979706Y-10203031D02*
X8989229Y-10193508D01*
X8989229Y-10193508D02*
X9008277Y-10183984D01*
X9008277Y-10183984D02*
X9055896Y-10183984D01*
X9055896Y-10183984D02*
X9074944Y-10193508D01*
X9074944Y-10193508D02*
X9084468Y-10203031D01*
X9084468Y-10203031D02*
X9093991Y-10222079D01*
X9093991Y-10222079D02*
X9093991Y-10241127D01*
X9093991Y-10241127D02*
X9084468Y-10269698D01*
X9084468Y-10269698D02*
X8970182Y-10383984D01*
X8970182Y-10383984D02*
X9093991Y-10383984D01*
X9160658Y-10183984D02*
X9284468Y-10183984D01*
X9284468Y-10183984D02*
X9217801Y-10260174D01*
X9217801Y-10260174D02*
X9246372Y-10260174D01*
X9246372Y-10260174D02*
X9265420Y-10269698D01*
X9265420Y-10269698D02*
X9274944Y-10279222D01*
X9274944Y-10279222D02*
X9284468Y-10298270D01*
X9284468Y-10298270D02*
X9284468Y-10345889D01*
X9284468Y-10345889D02*
X9274944Y-10364936D01*
X9274944Y-10364936D02*
X9265420Y-10374460D01*
X9265420Y-10374460D02*
X9246372Y-10383984D01*
X9246372Y-10383984D02*
X9189229Y-10383984D01*
X9189229Y-10383984D02*
X9170182Y-10374460D01*
X9170182Y-10374460D02*
X9160658Y-10364936D01*
X9455896Y-10183984D02*
X9417801Y-10183984D01*
X9417801Y-10183984D02*
X9398753Y-10193508D01*
X9398753Y-10193508D02*
X9389229Y-10203031D01*
X9389229Y-10203031D02*
X9370182Y-10231603D01*
X9370182Y-10231603D02*
X9360658Y-10269698D01*
X9360658Y-10269698D02*
X9360658Y-10345889D01*
X9360658Y-10345889D02*
X9370182Y-10364936D01*
X9370182Y-10364936D02*
X9379706Y-10374460D01*
X9379706Y-10374460D02*
X9398753Y-10383984D01*
X9398753Y-10383984D02*
X9436849Y-10383984D01*
X9436849Y-10383984D02*
X9455896Y-10374460D01*
X9455896Y-10374460D02*
X9465420Y-10364936D01*
X9465420Y-10364936D02*
X9474944Y-10345889D01*
X9474944Y-10345889D02*
X9474944Y-10298270D01*
X9474944Y-10298270D02*
X9465420Y-10279222D01*
X9465420Y-10279222D02*
X9455896Y-10269698D01*
X9455896Y-10269698D02*
X9436849Y-10260174D01*
X9436849Y-10260174D02*
X9398753Y-10260174D01*
X9398753Y-10260174D02*
X9379706Y-10269698D01*
X9379706Y-10269698D02*
X9370182Y-10279222D01*
X9370182Y-10279222D02*
X9360658Y-10298270D01*
X9551134Y-10183984D02*
X9551134Y-10222079D01*
X9627325Y-10183984D02*
X9627325Y-10222079D01*
X9922563Y-10460174D02*
X9913039Y-10450650D01*
X9913039Y-10450650D02*
X9893991Y-10422079D01*
X9893991Y-10422079D02*
X9884468Y-10403031D01*
X9884468Y-10403031D02*
X9874944Y-10374460D01*
X9874944Y-10374460D02*
X9865420Y-10326841D01*
X9865420Y-10326841D02*
X9865420Y-10288746D01*
X9865420Y-10288746D02*
X9874944Y-10241127D01*
X9874944Y-10241127D02*
X9884468Y-10212555D01*
X9884468Y-10212555D02*
X9893991Y-10193508D01*
X9893991Y-10193508D02*
X9913039Y-10164936D01*
X9913039Y-10164936D02*
X9922563Y-10155412D01*
X9989230Y-10203031D02*
X9998753Y-10193508D01*
X9998753Y-10193508D02*
X10017801Y-10183984D01*
X10017801Y-10183984D02*
X10065420Y-10183984D01*
X10065420Y-10183984D02*
X10084468Y-10193508D01*
X10084468Y-10193508D02*
X10093991Y-10203031D01*
X10093991Y-10203031D02*
X10103515Y-10222079D01*
X10103515Y-10222079D02*
X10103515Y-10241127D01*
X10103515Y-10241127D02*
X10093991Y-10269698D01*
X10093991Y-10269698D02*
X9979706Y-10383984D01*
X9979706Y-10383984D02*
X10103515Y-10383984D01*
X10341611Y-10383984D02*
X10341611Y-10183984D01*
X10427325Y-10383984D02*
X10427325Y-10279222D01*
X10427325Y-10279222D02*
X10417801Y-10260174D01*
X10417801Y-10260174D02*
X10398753Y-10250650D01*
X10398753Y-10250650D02*
X10370182Y-10250650D01*
X10370182Y-10250650D02*
X10351134Y-10260174D01*
X10351134Y-10260174D02*
X10341611Y-10269698D01*
X10551134Y-10383984D02*
X10532087Y-10374460D01*
X10532087Y-10374460D02*
X10522563Y-10364936D01*
X10522563Y-10364936D02*
X10513039Y-10345889D01*
X10513039Y-10345889D02*
X10513039Y-10288746D01*
X10513039Y-10288746D02*
X10522563Y-10269698D01*
X10522563Y-10269698D02*
X10532087Y-10260174D01*
X10532087Y-10260174D02*
X10551134Y-10250650D01*
X10551134Y-10250650D02*
X10579706Y-10250650D01*
X10579706Y-10250650D02*
X10598753Y-10260174D01*
X10598753Y-10260174D02*
X10608277Y-10269698D01*
X10608277Y-10269698D02*
X10617801Y-10288746D01*
X10617801Y-10288746D02*
X10617801Y-10345889D01*
X10617801Y-10345889D02*
X10608277Y-10364936D01*
X10608277Y-10364936D02*
X10598753Y-10374460D01*
X10598753Y-10374460D02*
X10579706Y-10383984D01*
X10579706Y-10383984D02*
X10551134Y-10383984D01*
X10732087Y-10383984D02*
X10713039Y-10374460D01*
X10713039Y-10374460D02*
X10703515Y-10355412D01*
X10703515Y-10355412D02*
X10703515Y-10183984D01*
X10884468Y-10374460D02*
X10865420Y-10383984D01*
X10865420Y-10383984D02*
X10827325Y-10383984D01*
X10827325Y-10383984D02*
X10808277Y-10374460D01*
X10808277Y-10374460D02*
X10798753Y-10355412D01*
X10798753Y-10355412D02*
X10798753Y-10279222D01*
X10798753Y-10279222D02*
X10808277Y-10260174D01*
X10808277Y-10260174D02*
X10827325Y-10250650D01*
X10827325Y-10250650D02*
X10865420Y-10250650D01*
X10865420Y-10250650D02*
X10884468Y-10260174D01*
X10884468Y-10260174D02*
X10893992Y-10279222D01*
X10893992Y-10279222D02*
X10893992Y-10298270D01*
X10893992Y-10298270D02*
X10798753Y-10317317D01*
X10970182Y-10374460D02*
X10989230Y-10383984D01*
X10989230Y-10383984D02*
X11027325Y-10383984D01*
X11027325Y-10383984D02*
X11046373Y-10374460D01*
X11046373Y-10374460D02*
X11055896Y-10355412D01*
X11055896Y-10355412D02*
X11055896Y-10345889D01*
X11055896Y-10345889D02*
X11046373Y-10326841D01*
X11046373Y-10326841D02*
X11027325Y-10317317D01*
X11027325Y-10317317D02*
X10998753Y-10317317D01*
X10998753Y-10317317D02*
X10979706Y-10307793D01*
X10979706Y-10307793D02*
X10970182Y-10288746D01*
X10970182Y-10288746D02*
X10970182Y-10279222D01*
X10970182Y-10279222D02*
X10979706Y-10260174D01*
X10979706Y-10260174D02*
X10998753Y-10250650D01*
X10998753Y-10250650D02*
X11027325Y-10250650D01*
X11027325Y-10250650D02*
X11046373Y-10260174D01*
X11122563Y-10460174D02*
X11132087Y-10450650D01*
X11132087Y-10450650D02*
X11151134Y-10422079D01*
X11151134Y-10422079D02*
X11160658Y-10403031D01*
X11160658Y-10403031D02*
X11170182Y-10374460D01*
X11170182Y-10374460D02*
X11179706Y-10326841D01*
X11179706Y-10326841D02*
X11179706Y-10288746D01*
X11179706Y-10288746D02*
X11170182Y-10241127D01*
X11170182Y-10241127D02*
X11160658Y-10212555D01*
X11160658Y-10212555D02*
X11151134Y-10193508D01*
X11151134Y-10193508D02*
X11132087Y-10164936D01*
X11132087Y-10164936D02*
X11122563Y-10155412D01*
X11484468Y-10460174D02*
X11474944Y-10450650D01*
X11474944Y-10450650D02*
X11455896Y-10422079D01*
X11455896Y-10422079D02*
X11446372Y-10403031D01*
X11446372Y-10403031D02*
X11436849Y-10374460D01*
X11436849Y-10374460D02*
X11427325Y-10326841D01*
X11427325Y-10326841D02*
X11427325Y-10288746D01*
X11427325Y-10288746D02*
X11436849Y-10241127D01*
X11436849Y-10241127D02*
X11446372Y-10212555D01*
X11446372Y-10212555D02*
X11455896Y-10193508D01*
X11455896Y-10193508D02*
X11474944Y-10164936D01*
X11474944Y-10164936D02*
X11484468Y-10155412D01*
X11560658Y-10250650D02*
X11560658Y-10383984D01*
X11560658Y-10269698D02*
X11570182Y-10260174D01*
X11570182Y-10260174D02*
X11589230Y-10250650D01*
X11589230Y-10250650D02*
X11617801Y-10250650D01*
X11617801Y-10250650D02*
X11636849Y-10260174D01*
X11636849Y-10260174D02*
X11646372Y-10279222D01*
X11646372Y-10279222D02*
X11646372Y-10383984D01*
X11770182Y-10383984D02*
X11751134Y-10374460D01*
X11751134Y-10374460D02*
X11741611Y-10364936D01*
X11741611Y-10364936D02*
X11732087Y-10345889D01*
X11732087Y-10345889D02*
X11732087Y-10288746D01*
X11732087Y-10288746D02*
X11741611Y-10269698D01*
X11741611Y-10269698D02*
X11751134Y-10260174D01*
X11751134Y-10260174D02*
X11770182Y-10250650D01*
X11770182Y-10250650D02*
X11798753Y-10250650D01*
X11798753Y-10250650D02*
X11817801Y-10260174D01*
X11817801Y-10260174D02*
X11827325Y-10269698D01*
X11827325Y-10269698D02*
X11836849Y-10288746D01*
X11836849Y-10288746D02*
X11836849Y-10345889D01*
X11836849Y-10345889D02*
X11827325Y-10364936D01*
X11827325Y-10364936D02*
X11817801Y-10374460D01*
X11817801Y-10374460D02*
X11798753Y-10383984D01*
X11798753Y-10383984D02*
X11770182Y-10383984D01*
X11893992Y-10250650D02*
X11970182Y-10250650D01*
X11922563Y-10183984D02*
X11922563Y-10355412D01*
X11922563Y-10355412D02*
X11932087Y-10374460D01*
X11932087Y-10374460D02*
X11951134Y-10383984D01*
X11951134Y-10383984D02*
X11970182Y-10383984D01*
X12189230Y-10250650D02*
X12189230Y-10450650D01*
X12189230Y-10260174D02*
X12208277Y-10250650D01*
X12208277Y-10250650D02*
X12246373Y-10250650D01*
X12246373Y-10250650D02*
X12265420Y-10260174D01*
X12265420Y-10260174D02*
X12274944Y-10269698D01*
X12274944Y-10269698D02*
X12284468Y-10288746D01*
X12284468Y-10288746D02*
X12284468Y-10345889D01*
X12284468Y-10345889D02*
X12274944Y-10364936D01*
X12274944Y-10364936D02*
X12265420Y-10374460D01*
X12265420Y-10374460D02*
X12246373Y-10383984D01*
X12246373Y-10383984D02*
X12208277Y-10383984D01*
X12208277Y-10383984D02*
X12189230Y-10374460D01*
X12398753Y-10383984D02*
X12379706Y-10374460D01*
X12379706Y-10374460D02*
X12370182Y-10355412D01*
X12370182Y-10355412D02*
X12370182Y-10183984D01*
X12560658Y-10383984D02*
X12560658Y-10279222D01*
X12560658Y-10279222D02*
X12551134Y-10260174D01*
X12551134Y-10260174D02*
X12532087Y-10250650D01*
X12532087Y-10250650D02*
X12493992Y-10250650D01*
X12493992Y-10250650D02*
X12474944Y-10260174D01*
X12560658Y-10374460D02*
X12541611Y-10383984D01*
X12541611Y-10383984D02*
X12493992Y-10383984D01*
X12493992Y-10383984D02*
X12474944Y-10374460D01*
X12474944Y-10374460D02*
X12465420Y-10355412D01*
X12465420Y-10355412D02*
X12465420Y-10336365D01*
X12465420Y-10336365D02*
X12474944Y-10317317D01*
X12474944Y-10317317D02*
X12493992Y-10307793D01*
X12493992Y-10307793D02*
X12541611Y-10307793D01*
X12541611Y-10307793D02*
X12560658Y-10298270D01*
X12627325Y-10250650D02*
X12703515Y-10250650D01*
X12655896Y-10183984D02*
X12655896Y-10355412D01*
X12655896Y-10355412D02*
X12665420Y-10374460D01*
X12665420Y-10374460D02*
X12684468Y-10383984D01*
X12684468Y-10383984D02*
X12703515Y-10383984D01*
X12846373Y-10374460D02*
X12827325Y-10383984D01*
X12827325Y-10383984D02*
X12789230Y-10383984D01*
X12789230Y-10383984D02*
X12770182Y-10374460D01*
X12770182Y-10374460D02*
X12760658Y-10355412D01*
X12760658Y-10355412D02*
X12760658Y-10279222D01*
X12760658Y-10279222D02*
X12770182Y-10260174D01*
X12770182Y-10260174D02*
X12789230Y-10250650D01*
X12789230Y-10250650D02*
X12827325Y-10250650D01*
X12827325Y-10250650D02*
X12846373Y-10260174D01*
X12846373Y-10260174D02*
X12855896Y-10279222D01*
X12855896Y-10279222D02*
X12855896Y-10298270D01*
X12855896Y-10298270D02*
X12760658Y-10317317D01*
X13027325Y-10383984D02*
X13027325Y-10183984D01*
X13027325Y-10374460D02*
X13008277Y-10383984D01*
X13008277Y-10383984D02*
X12970182Y-10383984D01*
X12970182Y-10383984D02*
X12951134Y-10374460D01*
X12951134Y-10374460D02*
X12941611Y-10364936D01*
X12941611Y-10364936D02*
X12932087Y-10345889D01*
X12932087Y-10345889D02*
X12932087Y-10288746D01*
X12932087Y-10288746D02*
X12941611Y-10269698D01*
X12941611Y-10269698D02*
X12951134Y-10260174D01*
X12951134Y-10260174D02*
X12970182Y-10250650D01*
X12970182Y-10250650D02*
X13008277Y-10250650D01*
X13008277Y-10250650D02*
X13027325Y-10260174D01*
X13103515Y-10460174D02*
X13113039Y-10450650D01*
X13113039Y-10450650D02*
X13132087Y-10422079D01*
X13132087Y-10422079D02*
X13141611Y-10403031D01*
X13141611Y-10403031D02*
X13151134Y-10374460D01*
X13151134Y-10374460D02*
X13160658Y-10326841D01*
X13160658Y-10326841D02*
X13160658Y-10288746D01*
X13160658Y-10288746D02*
X13151134Y-10241127D01*
X13151134Y-10241127D02*
X13141611Y-10212555D01*
X13141611Y-10212555D02*
X13132087Y-10193508D01*
X13132087Y-10193508D02*
X13113039Y-10164936D01*
X13113039Y-10164936D02*
X13103515Y-10155412D01*
D12*
X6347500Y-10556500D02*
G75*
G02*
X6262500Y-10556500I-42500J0D01*
G01*
X6262500Y-10556500D02*
G75*
G02*
X6347500Y-10556500I42500J0D01*
G01*
D11*
X6646372Y-10447984D02*
X6665420Y-10447984D01*
X6665420Y-10447984D02*
X6684467Y-10457508D01*
X6684467Y-10457508D02*
X6693991Y-10467031D01*
X6693991Y-10467031D02*
X6703515Y-10486079D01*
X6703515Y-10486079D02*
X6713039Y-10524174D01*
X6713039Y-10524174D02*
X6713039Y-10571793D01*
X6713039Y-10571793D02*
X6703515Y-10609889D01*
X6703515Y-10609889D02*
X6693991Y-10628936D01*
X6693991Y-10628936D02*
X6684467Y-10638460D01*
X6684467Y-10638460D02*
X6665420Y-10647984D01*
X6665420Y-10647984D02*
X6646372Y-10647984D01*
X6646372Y-10647984D02*
X6627324Y-10638460D01*
X6627324Y-10638460D02*
X6617801Y-10628936D01*
X6617801Y-10628936D02*
X6608277Y-10609889D01*
X6608277Y-10609889D02*
X6598753Y-10571793D01*
X6598753Y-10571793D02*
X6598753Y-10524174D01*
X6598753Y-10524174D02*
X6608277Y-10486079D01*
X6608277Y-10486079D02*
X6617801Y-10467031D01*
X6617801Y-10467031D02*
X6627324Y-10457508D01*
X6627324Y-10457508D02*
X6646372Y-10447984D01*
X6798753Y-10628936D02*
X6808277Y-10638460D01*
X6808277Y-10638460D02*
X6798753Y-10647984D01*
X6798753Y-10647984D02*
X6789229Y-10638460D01*
X6789229Y-10638460D02*
X6798753Y-10628936D01*
X6798753Y-10628936D02*
X6798753Y-10647984D01*
X6922562Y-10533698D02*
X6903515Y-10524174D01*
X6903515Y-10524174D02*
X6893991Y-10514650D01*
X6893991Y-10514650D02*
X6884467Y-10495603D01*
X6884467Y-10495603D02*
X6884467Y-10486079D01*
X6884467Y-10486079D02*
X6893991Y-10467031D01*
X6893991Y-10467031D02*
X6903515Y-10457508D01*
X6903515Y-10457508D02*
X6922562Y-10447984D01*
X6922562Y-10447984D02*
X6960658Y-10447984D01*
X6960658Y-10447984D02*
X6979705Y-10457508D01*
X6979705Y-10457508D02*
X6989229Y-10467031D01*
X6989229Y-10467031D02*
X6998753Y-10486079D01*
X6998753Y-10486079D02*
X6998753Y-10495603D01*
X6998753Y-10495603D02*
X6989229Y-10514650D01*
X6989229Y-10514650D02*
X6979705Y-10524174D01*
X6979705Y-10524174D02*
X6960658Y-10533698D01*
X6960658Y-10533698D02*
X6922562Y-10533698D01*
X6922562Y-10533698D02*
X6903515Y-10543222D01*
X6903515Y-10543222D02*
X6893991Y-10552746D01*
X6893991Y-10552746D02*
X6884467Y-10571793D01*
X6884467Y-10571793D02*
X6884467Y-10609889D01*
X6884467Y-10609889D02*
X6893991Y-10628936D01*
X6893991Y-10628936D02*
X6903515Y-10638460D01*
X6903515Y-10638460D02*
X6922562Y-10647984D01*
X6922562Y-10647984D02*
X6960658Y-10647984D01*
X6960658Y-10647984D02*
X6979705Y-10638460D01*
X6979705Y-10638460D02*
X6989229Y-10628936D01*
X6989229Y-10628936D02*
X6998753Y-10609889D01*
X6998753Y-10609889D02*
X6998753Y-10571793D01*
X6998753Y-10571793D02*
X6989229Y-10552746D01*
X6989229Y-10552746D02*
X6979705Y-10543222D01*
X6979705Y-10543222D02*
X6960658Y-10533698D01*
X7179705Y-10447984D02*
X7084467Y-10447984D01*
X7084467Y-10447984D02*
X7074943Y-10543222D01*
X7074943Y-10543222D02*
X7084467Y-10533698D01*
X7084467Y-10533698D02*
X7103515Y-10524174D01*
X7103515Y-10524174D02*
X7151134Y-10524174D01*
X7151134Y-10524174D02*
X7170182Y-10533698D01*
X7170182Y-10533698D02*
X7179705Y-10543222D01*
X7179705Y-10543222D02*
X7189229Y-10562270D01*
X7189229Y-10562270D02*
X7189229Y-10609889D01*
X7189229Y-10609889D02*
X7179705Y-10628936D01*
X7179705Y-10628936D02*
X7170182Y-10638460D01*
X7170182Y-10638460D02*
X7151134Y-10647984D01*
X7151134Y-10647984D02*
X7103515Y-10647984D01*
X7103515Y-10647984D02*
X7084467Y-10638460D01*
X7084467Y-10638460D02*
X7074943Y-10628936D01*
X7313039Y-10447984D02*
X7332086Y-10447984D01*
X7332086Y-10447984D02*
X7351134Y-10457508D01*
X7351134Y-10457508D02*
X7360658Y-10467031D01*
X7360658Y-10467031D02*
X7370182Y-10486079D01*
X7370182Y-10486079D02*
X7379705Y-10524174D01*
X7379705Y-10524174D02*
X7379705Y-10571793D01*
X7379705Y-10571793D02*
X7370182Y-10609889D01*
X7370182Y-10609889D02*
X7360658Y-10628936D01*
X7360658Y-10628936D02*
X7351134Y-10638460D01*
X7351134Y-10638460D02*
X7332086Y-10647984D01*
X7332086Y-10647984D02*
X7313039Y-10647984D01*
X7313039Y-10647984D02*
X7293991Y-10638460D01*
X7293991Y-10638460D02*
X7284467Y-10628936D01*
X7284467Y-10628936D02*
X7274943Y-10609889D01*
X7274943Y-10609889D02*
X7265420Y-10571793D01*
X7265420Y-10571793D02*
X7265420Y-10524174D01*
X7265420Y-10524174D02*
X7274943Y-10486079D01*
X7274943Y-10486079D02*
X7284467Y-10467031D01*
X7284467Y-10467031D02*
X7293991Y-10457508D01*
X7293991Y-10457508D02*
X7313039Y-10447984D01*
X7465420Y-10647984D02*
X7465420Y-10514650D01*
X7465420Y-10533698D02*
X7474943Y-10524174D01*
X7474943Y-10524174D02*
X7493991Y-10514650D01*
X7493991Y-10514650D02*
X7522563Y-10514650D01*
X7522563Y-10514650D02*
X7541610Y-10524174D01*
X7541610Y-10524174D02*
X7551134Y-10543222D01*
X7551134Y-10543222D02*
X7551134Y-10647984D01*
X7551134Y-10543222D02*
X7560658Y-10524174D01*
X7560658Y-10524174D02*
X7579705Y-10514650D01*
X7579705Y-10514650D02*
X7608277Y-10514650D01*
X7608277Y-10514650D02*
X7627324Y-10524174D01*
X7627324Y-10524174D02*
X7636848Y-10543222D01*
X7636848Y-10543222D02*
X7636848Y-10647984D01*
X7732086Y-10647984D02*
X7732086Y-10514650D01*
X7732086Y-10533698D02*
X7741610Y-10524174D01*
X7741610Y-10524174D02*
X7760658Y-10514650D01*
X7760658Y-10514650D02*
X7789229Y-10514650D01*
X7789229Y-10514650D02*
X7808277Y-10524174D01*
X7808277Y-10524174D02*
X7817801Y-10543222D01*
X7817801Y-10543222D02*
X7817801Y-10647984D01*
X7817801Y-10543222D02*
X7827324Y-10524174D01*
X7827324Y-10524174D02*
X7846372Y-10514650D01*
X7846372Y-10514650D02*
X7874943Y-10514650D01*
X7874943Y-10514650D02*
X7893991Y-10524174D01*
X7893991Y-10524174D02*
X7903515Y-10543222D01*
X7903515Y-10543222D02*
X7903515Y-10647984D01*
X8293991Y-10438460D02*
X8122563Y-10695603D01*
X8551134Y-10447984D02*
X8570182Y-10447984D01*
X8570182Y-10447984D02*
X8589229Y-10457508D01*
X8589229Y-10457508D02*
X8598753Y-10467031D01*
X8598753Y-10467031D02*
X8608277Y-10486079D01*
X8608277Y-10486079D02*
X8617801Y-10524174D01*
X8617801Y-10524174D02*
X8617801Y-10571793D01*
X8617801Y-10571793D02*
X8608277Y-10609889D01*
X8608277Y-10609889D02*
X8598753Y-10628936D01*
X8598753Y-10628936D02*
X8589229Y-10638460D01*
X8589229Y-10638460D02*
X8570182Y-10647984D01*
X8570182Y-10647984D02*
X8551134Y-10647984D01*
X8551134Y-10647984D02*
X8532087Y-10638460D01*
X8532087Y-10638460D02*
X8522563Y-10628936D01*
X8522563Y-10628936D02*
X8513039Y-10609889D01*
X8513039Y-10609889D02*
X8503515Y-10571793D01*
X8503515Y-10571793D02*
X8503515Y-10524174D01*
X8503515Y-10524174D02*
X8513039Y-10486079D01*
X8513039Y-10486079D02*
X8522563Y-10467031D01*
X8522563Y-10467031D02*
X8532087Y-10457508D01*
X8532087Y-10457508D02*
X8551134Y-10447984D01*
X8703515Y-10628936D02*
X8713039Y-10638460D01*
X8713039Y-10638460D02*
X8703515Y-10647984D01*
X8703515Y-10647984D02*
X8693991Y-10638460D01*
X8693991Y-10638460D02*
X8703515Y-10628936D01*
X8703515Y-10628936D02*
X8703515Y-10647984D01*
X8836848Y-10447984D02*
X8855896Y-10447984D01*
X8855896Y-10447984D02*
X8874944Y-10457508D01*
X8874944Y-10457508D02*
X8884468Y-10467031D01*
X8884468Y-10467031D02*
X8893991Y-10486079D01*
X8893991Y-10486079D02*
X8903515Y-10524174D01*
X8903515Y-10524174D02*
X8903515Y-10571793D01*
X8903515Y-10571793D02*
X8893991Y-10609889D01*
X8893991Y-10609889D02*
X8884468Y-10628936D01*
X8884468Y-10628936D02*
X8874944Y-10638460D01*
X8874944Y-10638460D02*
X8855896Y-10647984D01*
X8855896Y-10647984D02*
X8836848Y-10647984D01*
X8836848Y-10647984D02*
X8817801Y-10638460D01*
X8817801Y-10638460D02*
X8808277Y-10628936D01*
X8808277Y-10628936D02*
X8798753Y-10609889D01*
X8798753Y-10609889D02*
X8789229Y-10571793D01*
X8789229Y-10571793D02*
X8789229Y-10524174D01*
X8789229Y-10524174D02*
X8798753Y-10486079D01*
X8798753Y-10486079D02*
X8808277Y-10467031D01*
X8808277Y-10467031D02*
X8817801Y-10457508D01*
X8817801Y-10457508D02*
X8836848Y-10447984D01*
X8970182Y-10447984D02*
X9093991Y-10447984D01*
X9093991Y-10447984D02*
X9027325Y-10524174D01*
X9027325Y-10524174D02*
X9055896Y-10524174D01*
X9055896Y-10524174D02*
X9074944Y-10533698D01*
X9074944Y-10533698D02*
X9084468Y-10543222D01*
X9084468Y-10543222D02*
X9093991Y-10562270D01*
X9093991Y-10562270D02*
X9093991Y-10609889D01*
X9093991Y-10609889D02*
X9084468Y-10628936D01*
X9084468Y-10628936D02*
X9074944Y-10638460D01*
X9074944Y-10638460D02*
X9055896Y-10647984D01*
X9055896Y-10647984D02*
X8998753Y-10647984D01*
X8998753Y-10647984D02*
X8979706Y-10638460D01*
X8979706Y-10638460D02*
X8970182Y-10628936D01*
X9160658Y-10447984D02*
X9284468Y-10447984D01*
X9284468Y-10447984D02*
X9217801Y-10524174D01*
X9217801Y-10524174D02*
X9246372Y-10524174D01*
X9246372Y-10524174D02*
X9265420Y-10533698D01*
X9265420Y-10533698D02*
X9274944Y-10543222D01*
X9274944Y-10543222D02*
X9284468Y-10562270D01*
X9284468Y-10562270D02*
X9284468Y-10609889D01*
X9284468Y-10609889D02*
X9274944Y-10628936D01*
X9274944Y-10628936D02*
X9265420Y-10638460D01*
X9265420Y-10638460D02*
X9246372Y-10647984D01*
X9246372Y-10647984D02*
X9189229Y-10647984D01*
X9189229Y-10647984D02*
X9170182Y-10638460D01*
X9170182Y-10638460D02*
X9160658Y-10628936D01*
X9465420Y-10447984D02*
X9370182Y-10447984D01*
X9370182Y-10447984D02*
X9360658Y-10543222D01*
X9360658Y-10543222D02*
X9370182Y-10533698D01*
X9370182Y-10533698D02*
X9389229Y-10524174D01*
X9389229Y-10524174D02*
X9436849Y-10524174D01*
X9436849Y-10524174D02*
X9455896Y-10533698D01*
X9455896Y-10533698D02*
X9465420Y-10543222D01*
X9465420Y-10543222D02*
X9474944Y-10562270D01*
X9474944Y-10562270D02*
X9474944Y-10609889D01*
X9474944Y-10609889D02*
X9465420Y-10628936D01*
X9465420Y-10628936D02*
X9455896Y-10638460D01*
X9455896Y-10638460D02*
X9436849Y-10647984D01*
X9436849Y-10647984D02*
X9389229Y-10647984D01*
X9389229Y-10647984D02*
X9370182Y-10638460D01*
X9370182Y-10638460D02*
X9360658Y-10628936D01*
X9551134Y-10447984D02*
X9551134Y-10486079D01*
X9627325Y-10447984D02*
X9627325Y-10486079D01*
X9922563Y-10724174D02*
X9913039Y-10714650D01*
X9913039Y-10714650D02*
X9893991Y-10686079D01*
X9893991Y-10686079D02*
X9884468Y-10667031D01*
X9884468Y-10667031D02*
X9874944Y-10638460D01*
X9874944Y-10638460D02*
X9865420Y-10590841D01*
X9865420Y-10590841D02*
X9865420Y-10552746D01*
X9865420Y-10552746D02*
X9874944Y-10505127D01*
X9874944Y-10505127D02*
X9884468Y-10476555D01*
X9884468Y-10476555D02*
X9893991Y-10457508D01*
X9893991Y-10457508D02*
X9913039Y-10428936D01*
X9913039Y-10428936D02*
X9922563Y-10419412D01*
X9989230Y-10467031D02*
X9998753Y-10457508D01*
X9998753Y-10457508D02*
X10017801Y-10447984D01*
X10017801Y-10447984D02*
X10065420Y-10447984D01*
X10065420Y-10447984D02*
X10084468Y-10457508D01*
X10084468Y-10457508D02*
X10093991Y-10467031D01*
X10093991Y-10467031D02*
X10103515Y-10486079D01*
X10103515Y-10486079D02*
X10103515Y-10505127D01*
X10103515Y-10505127D02*
X10093991Y-10533698D01*
X10093991Y-10533698D02*
X9979706Y-10647984D01*
X9979706Y-10647984D02*
X10103515Y-10647984D01*
X10341611Y-10647984D02*
X10341611Y-10447984D01*
X10427325Y-10647984D02*
X10427325Y-10543222D01*
X10427325Y-10543222D02*
X10417801Y-10524174D01*
X10417801Y-10524174D02*
X10398753Y-10514650D01*
X10398753Y-10514650D02*
X10370182Y-10514650D01*
X10370182Y-10514650D02*
X10351134Y-10524174D01*
X10351134Y-10524174D02*
X10341611Y-10533698D01*
X10551134Y-10647984D02*
X10532087Y-10638460D01*
X10532087Y-10638460D02*
X10522563Y-10628936D01*
X10522563Y-10628936D02*
X10513039Y-10609889D01*
X10513039Y-10609889D02*
X10513039Y-10552746D01*
X10513039Y-10552746D02*
X10522563Y-10533698D01*
X10522563Y-10533698D02*
X10532087Y-10524174D01*
X10532087Y-10524174D02*
X10551134Y-10514650D01*
X10551134Y-10514650D02*
X10579706Y-10514650D01*
X10579706Y-10514650D02*
X10598753Y-10524174D01*
X10598753Y-10524174D02*
X10608277Y-10533698D01*
X10608277Y-10533698D02*
X10617801Y-10552746D01*
X10617801Y-10552746D02*
X10617801Y-10609889D01*
X10617801Y-10609889D02*
X10608277Y-10628936D01*
X10608277Y-10628936D02*
X10598753Y-10638460D01*
X10598753Y-10638460D02*
X10579706Y-10647984D01*
X10579706Y-10647984D02*
X10551134Y-10647984D01*
X10732087Y-10647984D02*
X10713039Y-10638460D01*
X10713039Y-10638460D02*
X10703515Y-10619412D01*
X10703515Y-10619412D02*
X10703515Y-10447984D01*
X10884468Y-10638460D02*
X10865420Y-10647984D01*
X10865420Y-10647984D02*
X10827325Y-10647984D01*
X10827325Y-10647984D02*
X10808277Y-10638460D01*
X10808277Y-10638460D02*
X10798753Y-10619412D01*
X10798753Y-10619412D02*
X10798753Y-10543222D01*
X10798753Y-10543222D02*
X10808277Y-10524174D01*
X10808277Y-10524174D02*
X10827325Y-10514650D01*
X10827325Y-10514650D02*
X10865420Y-10514650D01*
X10865420Y-10514650D02*
X10884468Y-10524174D01*
X10884468Y-10524174D02*
X10893992Y-10543222D01*
X10893992Y-10543222D02*
X10893992Y-10562270D01*
X10893992Y-10562270D02*
X10798753Y-10581317D01*
X10970182Y-10638460D02*
X10989230Y-10647984D01*
X10989230Y-10647984D02*
X11027325Y-10647984D01*
X11027325Y-10647984D02*
X11046373Y-10638460D01*
X11046373Y-10638460D02*
X11055896Y-10619412D01*
X11055896Y-10619412D02*
X11055896Y-10609889D01*
X11055896Y-10609889D02*
X11046373Y-10590841D01*
X11046373Y-10590841D02*
X11027325Y-10581317D01*
X11027325Y-10581317D02*
X10998753Y-10581317D01*
X10998753Y-10581317D02*
X10979706Y-10571793D01*
X10979706Y-10571793D02*
X10970182Y-10552746D01*
X10970182Y-10552746D02*
X10970182Y-10543222D01*
X10970182Y-10543222D02*
X10979706Y-10524174D01*
X10979706Y-10524174D02*
X10998753Y-10514650D01*
X10998753Y-10514650D02*
X11027325Y-10514650D01*
X11027325Y-10514650D02*
X11046373Y-10524174D01*
X11122563Y-10724174D02*
X11132087Y-10714650D01*
X11132087Y-10714650D02*
X11151134Y-10686079D01*
X11151134Y-10686079D02*
X11160658Y-10667031D01*
X11160658Y-10667031D02*
X11170182Y-10638460D01*
X11170182Y-10638460D02*
X11179706Y-10590841D01*
X11179706Y-10590841D02*
X11179706Y-10552746D01*
X11179706Y-10552746D02*
X11170182Y-10505127D01*
X11170182Y-10505127D02*
X11160658Y-10476555D01*
X11160658Y-10476555D02*
X11151134Y-10457508D01*
X11151134Y-10457508D02*
X11132087Y-10428936D01*
X11132087Y-10428936D02*
X11122563Y-10419412D01*
X11484468Y-10724174D02*
X11474944Y-10714650D01*
X11474944Y-10714650D02*
X11455896Y-10686079D01*
X11455896Y-10686079D02*
X11446372Y-10667031D01*
X11446372Y-10667031D02*
X11436849Y-10638460D01*
X11436849Y-10638460D02*
X11427325Y-10590841D01*
X11427325Y-10590841D02*
X11427325Y-10552746D01*
X11427325Y-10552746D02*
X11436849Y-10505127D01*
X11436849Y-10505127D02*
X11446372Y-10476555D01*
X11446372Y-10476555D02*
X11455896Y-10457508D01*
X11455896Y-10457508D02*
X11474944Y-10428936D01*
X11474944Y-10428936D02*
X11484468Y-10419412D01*
X11560658Y-10514650D02*
X11560658Y-10647984D01*
X11560658Y-10533698D02*
X11570182Y-10524174D01*
X11570182Y-10524174D02*
X11589230Y-10514650D01*
X11589230Y-10514650D02*
X11617801Y-10514650D01*
X11617801Y-10514650D02*
X11636849Y-10524174D01*
X11636849Y-10524174D02*
X11646372Y-10543222D01*
X11646372Y-10543222D02*
X11646372Y-10647984D01*
X11770182Y-10647984D02*
X11751134Y-10638460D01*
X11751134Y-10638460D02*
X11741611Y-10628936D01*
X11741611Y-10628936D02*
X11732087Y-10609889D01*
X11732087Y-10609889D02*
X11732087Y-10552746D01*
X11732087Y-10552746D02*
X11741611Y-10533698D01*
X11741611Y-10533698D02*
X11751134Y-10524174D01*
X11751134Y-10524174D02*
X11770182Y-10514650D01*
X11770182Y-10514650D02*
X11798753Y-10514650D01*
X11798753Y-10514650D02*
X11817801Y-10524174D01*
X11817801Y-10524174D02*
X11827325Y-10533698D01*
X11827325Y-10533698D02*
X11836849Y-10552746D01*
X11836849Y-10552746D02*
X11836849Y-10609889D01*
X11836849Y-10609889D02*
X11827325Y-10628936D01*
X11827325Y-10628936D02*
X11817801Y-10638460D01*
X11817801Y-10638460D02*
X11798753Y-10647984D01*
X11798753Y-10647984D02*
X11770182Y-10647984D01*
X11893992Y-10514650D02*
X11970182Y-10514650D01*
X11922563Y-10447984D02*
X11922563Y-10619412D01*
X11922563Y-10619412D02*
X11932087Y-10638460D01*
X11932087Y-10638460D02*
X11951134Y-10647984D01*
X11951134Y-10647984D02*
X11970182Y-10647984D01*
X12189230Y-10514650D02*
X12189230Y-10714650D01*
X12189230Y-10524174D02*
X12208277Y-10514650D01*
X12208277Y-10514650D02*
X12246373Y-10514650D01*
X12246373Y-10514650D02*
X12265420Y-10524174D01*
X12265420Y-10524174D02*
X12274944Y-10533698D01*
X12274944Y-10533698D02*
X12284468Y-10552746D01*
X12284468Y-10552746D02*
X12284468Y-10609889D01*
X12284468Y-10609889D02*
X12274944Y-10628936D01*
X12274944Y-10628936D02*
X12265420Y-10638460D01*
X12265420Y-10638460D02*
X12246373Y-10647984D01*
X12246373Y-10647984D02*
X12208277Y-10647984D01*
X12208277Y-10647984D02*
X12189230Y-10638460D01*
X12398753Y-10647984D02*
X12379706Y-10638460D01*
X12379706Y-10638460D02*
X12370182Y-10619412D01*
X12370182Y-10619412D02*
X12370182Y-10447984D01*
X12560658Y-10647984D02*
X12560658Y-10543222D01*
X12560658Y-10543222D02*
X12551134Y-10524174D01*
X12551134Y-10524174D02*
X12532087Y-10514650D01*
X12532087Y-10514650D02*
X12493992Y-10514650D01*
X12493992Y-10514650D02*
X12474944Y-10524174D01*
X12560658Y-10638460D02*
X12541611Y-10647984D01*
X12541611Y-10647984D02*
X12493992Y-10647984D01*
X12493992Y-10647984D02*
X12474944Y-10638460D01*
X12474944Y-10638460D02*
X12465420Y-10619412D01*
X12465420Y-10619412D02*
X12465420Y-10600365D01*
X12465420Y-10600365D02*
X12474944Y-10581317D01*
X12474944Y-10581317D02*
X12493992Y-10571793D01*
X12493992Y-10571793D02*
X12541611Y-10571793D01*
X12541611Y-10571793D02*
X12560658Y-10562270D01*
X12627325Y-10514650D02*
X12703515Y-10514650D01*
X12655896Y-10447984D02*
X12655896Y-10619412D01*
X12655896Y-10619412D02*
X12665420Y-10638460D01*
X12665420Y-10638460D02*
X12684468Y-10647984D01*
X12684468Y-10647984D02*
X12703515Y-10647984D01*
X12846373Y-10638460D02*
X12827325Y-10647984D01*
X12827325Y-10647984D02*
X12789230Y-10647984D01*
X12789230Y-10647984D02*
X12770182Y-10638460D01*
X12770182Y-10638460D02*
X12760658Y-10619412D01*
X12760658Y-10619412D02*
X12760658Y-10543222D01*
X12760658Y-10543222D02*
X12770182Y-10524174D01*
X12770182Y-10524174D02*
X12789230Y-10514650D01*
X12789230Y-10514650D02*
X12827325Y-10514650D01*
X12827325Y-10514650D02*
X12846373Y-10524174D01*
X12846373Y-10524174D02*
X12855896Y-10543222D01*
X12855896Y-10543222D02*
X12855896Y-10562270D01*
X12855896Y-10562270D02*
X12760658Y-10581317D01*
X13027325Y-10647984D02*
X13027325Y-10447984D01*
X13027325Y-10638460D02*
X13008277Y-10647984D01*
X13008277Y-10647984D02*
X12970182Y-10647984D01*
X12970182Y-10647984D02*
X12951134Y-10638460D01*
X12951134Y-10638460D02*
X12941611Y-10628936D01*
X12941611Y-10628936D02*
X12932087Y-10609889D01*
X12932087Y-10609889D02*
X12932087Y-10552746D01*
X12932087Y-10552746D02*
X12941611Y-10533698D01*
X12941611Y-10533698D02*
X12951134Y-10524174D01*
X12951134Y-10524174D02*
X12970182Y-10514650D01*
X12970182Y-10514650D02*
X13008277Y-10514650D01*
X13008277Y-10514650D02*
X13027325Y-10524174D01*
X13103515Y-10724174D02*
X13113039Y-10714650D01*
X13113039Y-10714650D02*
X13132087Y-10686079D01*
X13132087Y-10686079D02*
X13141611Y-10667031D01*
X13141611Y-10667031D02*
X13151134Y-10638460D01*
X13151134Y-10638460D02*
X13160658Y-10590841D01*
X13160658Y-10590841D02*
X13160658Y-10552746D01*
X13160658Y-10552746D02*
X13151134Y-10505127D01*
X13151134Y-10505127D02*
X13141611Y-10476555D01*
X13141611Y-10476555D02*
X13132087Y-10457508D01*
X13132087Y-10457508D02*
X13113039Y-10428936D01*
X13113039Y-10428936D02*
X13103515Y-10419412D01*
M02*
